{
	"asset":{
		"generator":"Khronos glTF Blender I/O v4.5.51",
		"version":"2.0"
	},
	"scene":0,
	"scenes":[
		{
			"name":"Scene",
			"nodes":[
				2
			]
		}
	],
	"nodes":[
		{
			"mesh":0,
			"name":"btn.Copy._collider_sphere",
			"scale":[
				1.6666663885116577,
				1.6666663885116577,
				1.6666663885116577
			],
			"translation":[
				0.7528695464134216,
				-0.4642437994480133,
				0.9019703269004822
			]
		},
		{
			"mesh":1,
			"name":"Text.003",
			"rotation":[
				0.7071068286895752,
				0,
				0,
				0.7071068286895752
			],
			"scale":[
				0.1897033303976059,
				0.1897033154964447,
				0.1897033154964447
			],
			"translation":[
				0.705608606338501,
				-0.4642437696456909,
				0.9603034257888794
			]
		},
		{
			"children":[
				0,
				1
			],
			"mesh":2,
			"name":"btn.Copy",
			"rotation":[
				-0.2164396345615387,
				0,
				0,
				0.9762960076332092
			],
			"scale":[
				0.6000000238418579,
				0.6000000238418579,
				0.6000000238418579
			]
		}
	],
	"animations":[
		{
			"channels":[
				{
					"sampler":0,
					"target":{
						"node":2,
						"path":"translation"
					}
				},
				{
					"sampler":1,
					"target":{
						"node":2,
						"path":"rotation"
					}
				},
				{
					"sampler":2,
					"target":{
						"node":2,
						"path":"scale"
					}
				}
			],
			"name":"btn.Copy",
			"samplers":[
				{
					"input":16,
					"interpolation":"STEP",
					"output":17
				},
				{
					"input":16,
					"interpolation":"STEP",
					"output":18
				},
				{
					"input":16,
					"interpolation":"STEP",
					"output":19
				}
			]
		},
		{
			"channels":[
				{
					"sampler":0,
					"target":{
						"node":0,
						"path":"translation"
					}
				},
				{
					"sampler":1,
					"target":{
						"node":0,
						"path":"rotation"
					}
				},
				{
					"sampler":2,
					"target":{
						"node":0,
						"path":"scale"
					}
				}
			],
			"name":"btn.Copy._collider_sphere",
			"samplers":[
				{
					"input":16,
					"interpolation":"STEP",
					"output":20
				},
				{
					"input":16,
					"interpolation":"STEP",
					"output":21
				},
				{
					"input":16,
					"interpolation":"STEP",
					"output":22
				}
			]
		},
		{
			"channels":[
				{
					"sampler":0,
					"target":{
						"node":1,
						"path":"translation"
					}
				},
				{
					"sampler":1,
					"target":{
						"node":1,
						"path":"rotation"
					}
				},
				{
					"sampler":2,
					"target":{
						"node":1,
						"path":"scale"
					}
				}
			],
			"name":"Text.003",
			"samplers":[
				{
					"input":16,
					"interpolation":"STEP",
					"output":23
				},
				{
					"input":16,
					"interpolation":"STEP",
					"output":24
				},
				{
					"input":16,
					"interpolation":"STEP",
					"output":25
				}
			]
		}
	],
	"materials":[
		{
			"doubleSided":true,
			"name":"Neon-0.25",
			"pbrMetallicRoughness":{
				"baseColorFactor":[
					0.800000011920929,
					0.800000011920929,
					0.800000011920929,
					1
				],
				"metallicFactor":0,
				"roughnessFactor":0.4000000059604645
			}
		},
		{
			"doubleSided":true,
			"name":"MarblePure",
			"pbrMetallicRoughness":{
				"baseColorTexture":{
					"index":0
				},
				"metallicFactor":0,
				"roughnessFactor":0.6000000238418579
			}
		},
		{
			"doubleSided":true,
			"emissiveFactor":[
				0.400534987449646,
				0.3740459978580475,
				0.30081748962402344
			],
			"name":"Neon-0.25",
			"pbrMetallicRoughness":{
				"baseColorFactor":[
					0.801069974899292,
					0.748091995716095,
					0.6016349792480469,
					1
				],
				"metallicFactor":0,
				"roughnessFactor":0.5
			}
		}
	],
	"meshes":[
		{
			"name":"Sphere.001",
			"primitives":[
				{
					"attributes":{
						"POSITION":0,
						"NORMAL":1,
						"TEXCOORD_0":2
					},
					"indices":3
				}
			]
		},
		{
			"name":"Text.003",
			"primitives":[
				{
					"attributes":{
						"POSITION":4,
						"NORMAL":5,
						"TEXCOORD_0":6
					},
					"indices":7,
					"material":0
				}
			]
		},
		{
			"name":"Cylinder.003",
			"primitives":[
				{
					"attributes":{
						"POSITION":8,
						"NORMAL":9,
						"TEXCOORD_0":10
					},
					"indices":11,
					"material":1
				},
				{
					"attributes":{
						"POSITION":12,
						"NORMAL":13,
						"TEXCOORD_0":14
					},
					"indices":15,
					"material":2
				}
			]
		}
	],
	"textures":[
		{
			"sampler":0,
			"source":0
		}
	],
	"images":[
		{
			"mimeType":"image/png",
			"name":"MarbleFloor_2D_View",
			"uri":"tex/MarbleFloor_2D_View.png"
		}
	],
	"accessors":[
		{
			"bufferView":0,
			"componentType":5126,
			"count":1984,
			"max":[
				0.2814650237560272,
				0.28146517276763916,
				0.28146499395370483
			],
			"min":[
				-0.2814648449420929,
				-0.28146517276763916,
				-0.28146517276763916
			],
			"type":"VEC3"
		},
		{
			"bufferView":1,
			"componentType":5126,
			"count":1984,
			"type":"VEC3"
		},
		{
			"bufferView":2,
			"componentType":5126,
			"count":1984,
			"type":"VEC2"
		},
		{
			"bufferView":3,
			"componentType":5123,
			"count":2880,
			"type":"SCALAR"
		},
		{
			"bufferView":4,
			"componentType":5126,
			"count":599,
			"max":[
				1.1877585649490356,
				6.406853003682045e-08,
				0.7218321561813354
			],
			"min":[
				-1.1927212476730347,
				0,
				-0.7135608196258545
			],
			"type":"VEC3"
		},
		{
			"bufferView":5,
			"componentType":5126,
			"count":599,
			"type":"VEC3"
		},
		{
			"bufferView":6,
			"componentType":5126,
			"count":599,
			"type":"VEC2"
		},
		{
			"bufferView":7,
			"componentType":5123,
			"count":1725,
			"type":"SCALAR"
		},
		{
			"bufferView":8,
			"componentType":5126,
			"count":220,
			"max":[
				1.0833332538604736,
				-0.23231327533721924,
				0.955303966999054
			],
			"min":[
				0.3278849422931671,
				-0.6877616047859192,
				0.8203037977218628
			],
			"type":"VEC3"
		},
		{
			"bufferView":9,
			"componentType":5126,
			"count":220,
			"type":"VEC3"
		},
		{
			"bufferView":10,
			"componentType":5126,
			"count":220,
			"type":"VEC2"
		},
		{
			"bufferView":11,
			"componentType":5123,
			"count":600,
			"type":"SCALAR"
		},
		{
			"bufferView":12,
			"componentType":5126,
			"count":76,
			"max":[
				1.0381155014038086,
				-0.2775309681892395,
				0.955303966999054
			],
			"min":[
				0.37310269474983215,
				-0.6425439119338989,
				0.9553036093711853
			],
			"type":"VEC3"
		},
		{
			"bufferView":13,
			"componentType":5126,
			"count":76,
			"type":"VEC3"
		},
		{
			"bufferView":14,
			"componentType":5126,
			"count":76,
			"type":"VEC2"
		},
		{
			"bufferView":15,
			"componentType":5123,
			"count":204,
			"type":"SCALAR"
		},
		{
			"bufferView":16,
			"componentType":5126,
			"count":2,
			"max":[
				5
			],
			"min":[
				0.016666666666666666
			],
			"type":"SCALAR"
		},
		{
			"bufferView":17,
			"componentType":5126,
			"count":2,
			"type":"VEC3"
		},
		{
			"bufferView":18,
			"componentType":5126,
			"count":2,
			"type":"VEC4"
		},
		{
			"bufferView":19,
			"componentType":5126,
			"count":2,
			"type":"VEC3"
		},
		{
			"bufferView":20,
			"componentType":5126,
			"count":2,
			"type":"VEC3"
		},
		{
			"bufferView":21,
			"componentType":5126,
			"count":2,
			"type":"VEC4"
		},
		{
			"bufferView":22,
			"componentType":5126,
			"count":2,
			"type":"VEC3"
		},
		{
			"bufferView":23,
			"componentType":5126,
			"count":2,
			"type":"VEC3"
		},
		{
			"bufferView":24,
			"componentType":5126,
			"count":2,
			"type":"VEC4"
		},
		{
			"bufferView":25,
			"componentType":5126,
			"count":2,
			"type":"VEC3"
		}
	],
	"bufferViews":[
		{
			"buffer":0,
			"byteLength":23808,
			"byteOffset":0,
			"target":34962
		},
		{
			"buffer":0,
			"byteLength":23808,
			"byteOffset":23808,
			"target":34962
		},
		{
			"buffer":0,
			"byteLength":15872,
			"byteOffset":47616,
			"target":34962
		},
		{
			"buffer":0,
			"byteLength":5760,
			"byteOffset":63488,
			"target":34963
		},
		{
			"buffer":0,
			"byteLength":7188,
			"byteOffset":69248,
			"target":34962
		},
		{
			"buffer":0,
			"byteLength":7188,
			"byteOffset":76436,
			"target":34962
		},
		{
			"buffer":0,
			"byteLength":4792,
			"byteOffset":83624,
			"target":34962
		},
		{
			"buffer":0,
			"byteLength":3450,
			"byteOffset":88416,
			"target":34963
		},
		{
			"buffer":0,
			"byteLength":2640,
			"byteOffset":91868,
			"target":34962
		},
		{
			"buffer":0,
			"byteLength":2640,
			"byteOffset":94508,
			"target":34962
		},
		{
			"buffer":0,
			"byteLength":1760,
			"byteOffset":97148,
			"target":34962
		},
		{
			"buffer":0,
			"byteLength":1200,
			"byteOffset":98908,
			"target":34963
		},
		{
			"buffer":0,
			"byteLength":912,
			"byteOffset":100108,
			"target":34962
		},
		{
			"buffer":0,
			"byteLength":912,
			"byteOffset":101020,
			"target":34962
		},
		{
			"buffer":0,
			"byteLength":608,
			"byteOffset":101932,
			"target":34962
		},
		{
			"buffer":0,
			"byteLength":408,
			"byteOffset":102540,
			"target":34963
		},
		{
			"buffer":0,
			"byteLength":8,
			"byteOffset":102948
		},
		{
			"buffer":0,
			"byteLength":24,
			"byteOffset":102956
		},
		{
			"buffer":0,
			"byteLength":32,
			"byteOffset":102980
		},
		{
			"buffer":0,
			"byteLength":24,
			"byteOffset":103012
		},
		{
			"buffer":0,
			"byteLength":24,
			"byteOffset":103036
		},
		{
			"buffer":0,
			"byteLength":32,
			"byteOffset":103060
		},
		{
			"buffer":0,
			"byteLength":24,
			"byteOffset":103092
		},
		{
			"buffer":0,
			"byteLength":24,
			"byteOffset":103116
		},
		{
			"buffer":0,
			"byteLength":32,
			"byteOffset":103140
		},
		{
			"buffer":0,
			"byteLength":24,
			"byteOffset":103172
		}
	],
	"samplers":[
		{
			"magFilter":9729,
			"minFilter":9987
		}
	],
	"buffers":[
		{
			"byteLength":103196,
			"uri":"btnCopy.bin"
		}
	]
}
