{
	"asset":{
		"generator":"Khronos glTF Blender I/O v4.5.51",
		"version":"2.0"
	},
	"scene":0,
	"scenes":[
		{
			"name":"Scene",
			"nodes":[
				2
			]
		}
	],
	"nodes":[
		{
			"mesh":0,
			"name":"btn.Copy._collider_sphere.001",
			"scale":[
				1.6666662693023682,
				1.6666661500930786,
				1.6666661500930786
			],
			"translation":[
				0,
				-0.46003735065460205,
				0.8203035593032837
			]
		},
		{
			"mesh":1,
			"name":"mars-and-venus.svg",
			"scale":[
				0.18102926015853882,
				0.1810293346643448,
				0.1810293346643448
			],
			"translation":[
				-0.018428727984428406,
				-0.45917826890945435,
				0.9636369943618774
			]
		},
		{
			"children":[
				0,
				1
			],
			"mesh":2,
			"name":"btn.Copy.001",
			"rotation":[
				-0.2164396345615387,
				0,
				0,
				0.9762960076332092
			],
			"scale":[
				0.6000000238418579,
				0.6000000238418579,
				0.6000000238418579
			]
		}
	],
	"animations":[
		{
			"channels":[
				{
					"sampler":0,
					"target":{
						"node":2,
						"path":"translation"
					}
				},
				{
					"sampler":1,
					"target":{
						"node":2,
						"path":"rotation"
					}
				},
				{
					"sampler":2,
					"target":{
						"node":2,
						"path":"scale"
					}
				}
			],
			"name":"btn.Copy.001",
			"samplers":[
				{
					"input":19,
					"interpolation":"STEP",
					"output":20
				},
				{
					"input":19,
					"interpolation":"STEP",
					"output":21
				},
				{
					"input":19,
					"interpolation":"STEP",
					"output":22
				}
			]
		},
		{
			"channels":[
				{
					"sampler":0,
					"target":{
						"node":0,
						"path":"translation"
					}
				},
				{
					"sampler":1,
					"target":{
						"node":0,
						"path":"rotation"
					}
				},
				{
					"sampler":2,
					"target":{
						"node":0,
						"path":"scale"
					}
				}
			],
			"name":"btn.Copy._collider_sphere.001",
			"samplers":[
				{
					"input":19,
					"interpolation":"STEP",
					"output":23
				},
				{
					"input":19,
					"interpolation":"STEP",
					"output":24
				},
				{
					"input":19,
					"interpolation":"STEP",
					"output":25
				}
			]
		},
		{
			"channels":[
				{
					"sampler":0,
					"target":{
						"node":1,
						"path":"translation"
					}
				},
				{
					"sampler":1,
					"target":{
						"node":1,
						"path":"rotation"
					}
				},
				{
					"sampler":2,
					"target":{
						"node":1,
						"path":"scale"
					}
				}
			],
			"name":"mars-and-venus.svg",
			"samplers":[
				{
					"input":19,
					"interpolation":"STEP",
					"output":26
				},
				{
					"input":19,
					"interpolation":"STEP",
					"output":27
				},
				{
					"input":19,
					"interpolation":"STEP",
					"output":28
				}
			]
		}
	],
	"materials":[
		{
			"emissiveFactor":[
				0.5,
				0.5,
				0.5
			],
			"emissiveTexture":{
				"index":0
			},
			"name":"PiratesPack_TX_Emissive",
			"pbrMetallicRoughness":{
				"baseColorTexture":{
					"index":1
				},
				"metallicFactor":0,
				"roughnessFactor":0.5
			}
		},
		{
			"doubleSided":true,
			"name":"MarblePure",
			"pbrMetallicRoughness":{
				"baseColorTexture":{
					"index":2
				},
				"metallicFactor":0,
				"roughnessFactor":0.6000000238418579
			}
		},
		{
			"doubleSided":true,
			"emissiveFactor":[
				0.200267493724823,
				0.18702299892902374,
				0.15040874481201172
			],
			"name":"Neon-0.25",
			"pbrMetallicRoughness":{
				"baseColorFactor":[
					0.801069974899292,
					0.748091995716095,
					0.6016349792480469,
					1
				],
				"metallicFactor":0,
				"roughnessFactor":0.5
			}
		}
	],
	"meshes":[
		{
			"name":"Sphere.002",
			"primitives":[
				{
					"attributes":{
						"POSITION":0,
						"NORMAL":1,
						"TEXCOORD_0":2
					},
					"indices":3
				}
			]
		},
		{
			"name":"mars-and-venus.svg",
			"primitives":[
				{
					"attributes":{
						"POSITION":4,
						"NORMAL":5,
						"TEXCOORD_0":6,
						"COLOR_0":7,
						"COLOR_1":8,
						"COLOR_2":9
					},
					"indices":10,
					"material":0
				}
			]
		},
		{
			"name":"Cylinder.006",
			"primitives":[
				{
					"attributes":{
						"POSITION":11,
						"NORMAL":12,
						"TEXCOORD_0":13
					},
					"indices":14,
					"material":1
				},
				{
					"attributes":{
						"POSITION":15,
						"NORMAL":16,
						"TEXCOORD_0":17
					},
					"indices":18,
					"material":2
				}
			]
		}
	],
	"textures":[
		{
			"sampler":0,
			"source":0
		},
		{
			"sampler":0,
			"source":0
		},
		{
			"sampler":0,
			"source":1
		}
	],
	"images":[
		{
			"mimeType":"image/png",
			"name":"AvatarWearables_TX",
			"uri":"tex/AvatarWearables_TX.png"
		},
		{
			"mimeType":"image/png",
			"name":"MarbleFloor_2D_View",
			"uri":"tex/MarbleFloor_2D_View.png"
		}
	],
	"accessors":[
		{
			"bufferView":0,
			"componentType":5126,
			"count":1984,
			"max":[
				0.17148664593696594,
				0.1714867204427719,
				0.17148660123348236
			],
			"min":[
				-0.17148654162883759,
				-0.1714867204427719,
				-0.1714867204427719
			],
			"type":"VEC3"
		},
		{
			"bufferView":1,
			"componentType":5126,
			"count":1984,
			"type":"VEC3"
		},
		{
			"bufferView":2,
			"componentType":5126,
			"count":1984,
			"type":"VEC2"
		},
		{
			"bufferView":3,
			"componentType":5123,
			"count":2880,
			"type":"SCALAR"
		},
		{
			"bufferView":4,
			"componentType":5126,
			"count":99,
			"max":[
				0.6346842646598816,
				0.5923509001731873,
				0.042362648993730545
			],
			"min":[
				-0.4233333468437195,
				-0.7607091069221497,
				0.04236258938908577
			],
			"type":"VEC3"
		},
		{
			"bufferView":5,
			"componentType":5126,
			"count":99,
			"type":"VEC3"
		},
		{
			"bufferView":6,
			"componentType":5126,
			"count":99,
			"type":"VEC2"
		},
		{
			"bufferView":7,
			"componentType":5121,
			"count":99,
			"normalized":true,
			"type":"VEC4"
		},
		{
			"bufferView":8,
			"componentType":5123,
			"count":99,
			"normalized":true,
			"type":"VEC4"
		},
		{
			"bufferView":9,
			"componentType":5123,
			"count":99,
			"normalized":true,
			"type":"VEC4"
		},
		{
			"bufferView":10,
			"componentType":5123,
			"count":297,
			"type":"SCALAR"
		},
		{
			"bufferView":11,
			"componentType":5126,
			"count":200,
			"max":[
				0.22772420942783356,
				-0.23231330513954163,
				0.955303966999054
			],
			"min":[
				-0.227724090218544,
				-0.687761664390564,
				0.8203037977218628
			],
			"type":"VEC3"
		},
		{
			"bufferView":12,
			"componentType":5126,
			"count":200,
			"type":"VEC3"
		},
		{
			"bufferView":13,
			"componentType":5126,
			"count":200,
			"type":"VEC2"
		},
		{
			"bufferView":14,
			"componentType":5123,
			"count":564,
			"type":"SCALAR"
		},
		{
			"bufferView":15,
			"componentType":5126,
			"count":68,
			"max":[
				0.18250645697116852,
				-0.2775309979915619,
				0.955303966999054
			],
			"min":[
				-0.18250633776187897,
				-0.6425439119338989,
				0.9553036093711853
			],
			"type":"VEC3"
		},
		{
			"bufferView":16,
			"componentType":5126,
			"count":68,
			"type":"VEC3"
		},
		{
			"bufferView":17,
			"componentType":5126,
			"count":68,
			"type":"VEC2"
		},
		{
			"bufferView":18,
			"componentType":5123,
			"count":192,
			"type":"SCALAR"
		},
		{
			"bufferView":19,
			"componentType":5126,
			"count":2,
			"max":[
				5
			],
			"min":[
				0.016666666666666666
			],
			"type":"SCALAR"
		},
		{
			"bufferView":20,
			"componentType":5126,
			"count":2,
			"type":"VEC3"
		},
		{
			"bufferView":21,
			"componentType":5126,
			"count":2,
			"type":"VEC4"
		},
		{
			"bufferView":22,
			"componentType":5126,
			"count":2,
			"type":"VEC3"
		},
		{
			"bufferView":23,
			"componentType":5126,
			"count":2,
			"type":"VEC3"
		},
		{
			"bufferView":24,
			"componentType":5126,
			"count":2,
			"type":"VEC4"
		},
		{
			"bufferView":25,
			"componentType":5126,
			"count":2,
			"type":"VEC3"
		},
		{
			"bufferView":26,
			"componentType":5126,
			"count":2,
			"type":"VEC3"
		},
		{
			"bufferView":27,
			"componentType":5126,
			"count":2,
			"type":"VEC4"
		},
		{
			"bufferView":28,
			"componentType":5126,
			"count":2,
			"type":"VEC3"
		}
	],
	"bufferViews":[
		{
			"buffer":0,
			"byteLength":23808,
			"byteOffset":0,
			"target":34962
		},
		{
			"buffer":0,
			"byteLength":23808,
			"byteOffset":23808,
			"target":34962
		},
		{
			"buffer":0,
			"byteLength":15872,
			"byteOffset":47616,
			"target":34962
		},
		{
			"buffer":0,
			"byteLength":5760,
			"byteOffset":63488,
			"target":34963
		},
		{
			"buffer":0,
			"byteLength":1188,
			"byteOffset":69248,
			"target":34962
		},
		{
			"buffer":0,
			"byteLength":1188,
			"byteOffset":70436,
			"target":34962
		},
		{
			"buffer":0,
			"byteLength":792,
			"byteOffset":71624,
			"target":34962
		},
		{
			"buffer":0,
			"byteLength":396,
			"byteOffset":72416,
			"target":34962
		},
		{
			"buffer":0,
			"byteLength":792,
			"byteOffset":72812,
			"target":34962
		},
		{
			"buffer":0,
			"byteLength":792,
			"byteOffset":73604,
			"target":34962
		},
		{
			"buffer":0,
			"byteLength":594,
			"byteOffset":74396,
			"target":34963
		},
		{
			"buffer":0,
			"byteLength":2400,
			"byteOffset":74992,
			"target":34962
		},
		{
			"buffer":0,
			"byteLength":2400,
			"byteOffset":77392,
			"target":34962
		},
		{
			"buffer":0,
			"byteLength":1600,
			"byteOffset":79792,
			"target":34962
		},
		{
			"buffer":0,
			"byteLength":1128,
			"byteOffset":81392,
			"target":34963
		},
		{
			"buffer":0,
			"byteLength":816,
			"byteOffset":82520,
			"target":34962
		},
		{
			"buffer":0,
			"byteLength":816,
			"byteOffset":83336,
			"target":34962
		},
		{
			"buffer":0,
			"byteLength":544,
			"byteOffset":84152,
			"target":34962
		},
		{
			"buffer":0,
			"byteLength":384,
			"byteOffset":84696,
			"target":34963
		},
		{
			"buffer":0,
			"byteLength":8,
			"byteOffset":85080
		},
		{
			"buffer":0,
			"byteLength":24,
			"byteOffset":85088
		},
		{
			"buffer":0,
			"byteLength":32,
			"byteOffset":85112
		},
		{
			"buffer":0,
			"byteLength":24,
			"byteOffset":85144
		},
		{
			"buffer":0,
			"byteLength":24,
			"byteOffset":85168
		},
		{
			"buffer":0,
			"byteLength":32,
			"byteOffset":85192
		},
		{
			"buffer":0,
			"byteLength":24,
			"byteOffset":85224
		},
		{
			"buffer":0,
			"byteLength":24,
			"byteOffset":85248
		},
		{
			"buffer":0,
			"byteLength":32,
			"byteOffset":85272
		},
		{
			"buffer":0,
			"byteLength":24,
			"byteOffset":85304
		}
	],
	"samplers":[
		{
			"magFilter":9729,
			"minFilter":9987
		}
	],
	"buffers":[
		{
			"byteLength":85328,
			"uri":"btnGenderSwap.bin"
		}
	]
}
