{
	"asset":{
		"generator":"Khronos glTF Blender I/O v4.5.49",
		"version":"2.0"
	},
	"scene":0,
	"scenes":[
		{
			"name":"Scene",
			"nodes":[
				1,
				2
			]
		}
	],
	"nodes":[
		{
			"mesh":0,
			"name":"Text.001",
			"rotation":[
				0.70710688829422,
				0,
				0,
				0.7071066498756409
			],
			"scale":[
				0.2926720678806305,
				0.2926720678806305,
				0.2926720678806305
			],
			"translation":[
				-0.8722755908966064,
				-0.46003738045692444,
				0.9019702076911926
			]
		},
		{
			"children":[
				0
			],
			"mesh":1,
			"name":"btn.Rest",
			"rotation":[
				-0.2164396345615387,
				0,
				0,
				0.9762960076332092
			],
			"scale":[
				0.6000000238418579,
				0.6000000238418579,
				0.6000000238418579
			]
		},
		{
			"mesh":2,
			"name":"btn.Reset._collider_sphere",
			"rotation":[
				-0.21643953025341034,
				0,
				0,
				0.9762960076332092
			],
			"scale":[
				0.7751486897468567,
				0.7751488089561462,
				0.7751488089561462
			],
			"translation":[
				-0.5233654975891113,
				-0.02144774980843067,
				0.6071298122406006
			]
		}
	],
	"materials":[
		{
			"doubleSided":true,
			"emissiveFactor":[
				0.400534987449646,
				0.3740459978580475,
				0.30081748962402344
			],
			"name":"Neon-0.25",
			"pbrMetallicRoughness":{
				"baseColorFactor":[
					0.801069974899292,
					0.748091995716095,
					0.6016349792480469,
					1
				],
				"metallicFactor":0,
				"roughnessFactor":0.5
			}
		},
		{
			"doubleSided":true,
			"name":"MarblePure",
			"pbrMetallicRoughness":{
				"baseColorTexture":{
					"index":0
				},
				"metallicFactor":0,
				"roughnessFactor":0.6000000238418579
			}
		}
	],
	"meshes":[
		{
			"name":"Text.004",
			"primitives":[
				{
					"attributes":{
						"POSITION":0,
						"NORMAL":1,
						"TEXCOORD_0":2
					},
					"indices":3,
					"material":0
				}
			]
		},
		{
			"name":"Cylinder.002",
			"primitives":[
				{
					"attributes":{
						"POSITION":4,
						"NORMAL":5,
						"TEXCOORD_0":6
					},
					"indices":7,
					"material":1
				},
				{
					"attributes":{
						"POSITION":8,
						"NORMAL":9,
						"TEXCOORD_0":10
					},
					"indices":11,
					"material":0
				}
			]
		},
		{
			"name":"Sphere",
			"primitives":[
				{
					"attributes":{
						"POSITION":12,
						"NORMAL":13,
						"TEXCOORD_0":14
					},
					"indices":15
				}
			]
		}
	],
	"textures":[
		{
			"sampler":0,
			"source":0
		}
	],
	"images":[
		{
			"mimeType":"image/png",
			"name":"MarbleFloor_2D_View",
			"uri":"tex/MarbleFloor_2D_View.png"
		}
	],
	"accessors":[
		{
			"bufferView":0,
			"componentType":5126,
			"count":253,
			"max":[
				0.7320098876953125,
				0,
				0.27667495608329773
			],
			"min":[
				-0.707196056842804,
				0,
				-0.35856080055236816
			],
			"type":"VEC3"
		},
		{
			"bufferView":1,
			"componentType":5126,
			"count":253,
			"type":"VEC3"
		},
		{
			"bufferView":2,
			"componentType":5126,
			"count":253,
			"type":"VEC2"
		},
		{
			"bufferView":3,
			"componentType":5123,
			"count":741,
			"type":"SCALAR"
		},
		{
			"bufferView":4,
			"componentType":5126,
			"count":220,
			"max":[
				-0.4945515990257263,
				-0.23231327533721924,
				0.8969706296920776
			],
			"min":[
				-1.2499998807907104,
				-0.6877616047859192,
				0.7619704604148865
			],
			"type":"VEC3"
		},
		{
			"bufferView":5,
			"componentType":5126,
			"count":220,
			"type":"VEC3"
		},
		{
			"bufferView":6,
			"componentType":5126,
			"count":220,
			"type":"VEC2"
		},
		{
			"bufferView":7,
			"componentType":5123,
			"count":600,
			"type":"SCALAR"
		},
		{
			"bufferView":8,
			"componentType":5126,
			"count":76,
			"max":[
				-0.5397693514823914,
				-0.2775309681892395,
				0.8969706296920776
			],
			"min":[
				-1.2047821283340454,
				-0.6425439119338989,
				0.896970272064209
			],
			"type":"VEC3"
		},
		{
			"bufferView":9,
			"componentType":5126,
			"count":76,
			"type":"VEC3"
		},
		{
			"bufferView":10,
			"componentType":5126,
			"count":76,
			"type":"VEC2"
		},
		{
			"bufferView":11,
			"componentType":5123,
			"count":204,
			"type":"SCALAR"
		},
		{
			"bufferView":12,
			"componentType":5126,
			"count":1984,
			"max":[
				0.3631110191345215,
				0.36311113834381104,
				0.36311089992523193
			],
			"min":[
				-0.3631107807159424,
				-0.36311113834381104,
				-0.36311113834381104
			],
			"type":"VEC3"
		},
		{
			"bufferView":13,
			"componentType":5126,
			"count":1984,
			"type":"VEC3"
		},
		{
			"bufferView":14,
			"componentType":5126,
			"count":1984,
			"type":"VEC2"
		},
		{
			"bufferView":15,
			"componentType":5123,
			"count":2880,
			"type":"SCALAR"
		}
	],
	"bufferViews":[
		{
			"buffer":0,
			"byteLength":3036,
			"byteOffset":0,
			"target":34962
		},
		{
			"buffer":0,
			"byteLength":3036,
			"byteOffset":3036,
			"target":34962
		},
		{
			"buffer":0,
			"byteLength":2024,
			"byteOffset":6072,
			"target":34962
		},
		{
			"buffer":0,
			"byteLength":1482,
			"byteOffset":8096,
			"target":34963
		},
		{
			"buffer":0,
			"byteLength":2640,
			"byteOffset":9580,
			"target":34962
		},
		{
			"buffer":0,
			"byteLength":2640,
			"byteOffset":12220,
			"target":34962
		},
		{
			"buffer":0,
			"byteLength":1760,
			"byteOffset":14860,
			"target":34962
		},
		{
			"buffer":0,
			"byteLength":1200,
			"byteOffset":16620,
			"target":34963
		},
		{
			"buffer":0,
			"byteLength":912,
			"byteOffset":17820,
			"target":34962
		},
		{
			"buffer":0,
			"byteLength":912,
			"byteOffset":18732,
			"target":34962
		},
		{
			"buffer":0,
			"byteLength":608,
			"byteOffset":19644,
			"target":34962
		},
		{
			"buffer":0,
			"byteLength":408,
			"byteOffset":20252,
			"target":34963
		},
		{
			"buffer":0,
			"byteLength":23808,
			"byteOffset":20660,
			"target":34962
		},
		{
			"buffer":0,
			"byteLength":23808,
			"byteOffset":44468,
			"target":34962
		},
		{
			"buffer":0,
			"byteLength":15872,
			"byteOffset":68276,
			"target":34962
		},
		{
			"buffer":0,
			"byteLength":5760,
			"byteOffset":84148,
			"target":34963
		}
	],
	"samplers":[
		{
			"magFilter":9729,
			"minFilter":9987
		}
	],
	"buffers":[
		{
			"byteLength":89908,
			"uri":"btnReset.bin"
		}
	]
}
