{
	"asset":{
		"generator":"Khronos glTF Blender I/O v4.5.51",
		"version":"2.0"
	},
	"scene":0,
	"scenes":[
		{
			"name":"Scene",
			"nodes":[
				7
			]
		}
	],
	"nodes":[
		{
			"mesh":0,
			"name":"dressThis.arrow",
			"scale":[
				0.12011285126209259,
				0.12011285126209259,
				0.02402256801724434
			],
			"translation":[
				0,
				0.23153173923492432,
				0
			]
		},
		{
			"children":[
				0
			],
			"name":"Bone.001",
			"translation":[
				0,
				1.9184683561325073,
				0
			]
		},
		{
			"mesh":1,
			"name":"Text.005",
			"rotation":[
				0.7071067690849304,
				0,
				0,
				0.7071067690849304
			],
			"scale":[
				0.38205039501190186,
				0.38205039501190186,
				0.38205039501190186
			],
			"translation":[
				0,
				0.0012640953063964844,
				0
			]
		},
		{
			"children":[
				2
			],
			"name":"Bone.002",
			"translation":[
				0,
				2.348735809326172,
				0
			]
		},
		{
			"mesh":2,
			"name":"btn.Left.001",
			"rotation":[
				-0.7071067690849304,
				3.090861255827804e-08,
				3.090861255827804e-08,
				0.7071067690849304
			],
			"scale":[
				0.7383279800415039,
				0.7383279800415039,
				0.7383279204368591
			]
		},
		{
			"children":[
				4
			],
			"name":"Bone.003",
			"rotation":[
				0.7071067690849304,
				-2.837897170593351e-07,
				-2.837897170593351e-07,
				0.7071067690849304
			],
			"translation":[
				0,
				2.1367247104644775,
				-0.09441907703876495
			]
		},
		{
			"children":[
				1,
				3,
				5
			],
			"name":"Bone"
		},
		{
			"children":[
				6
			],
			"name":"Armature"
		}
	],
	"animations":[
		{
			"channels":[
				{
					"sampler":0,
					"target":{
						"node":6,
						"path":"translation"
					}
				},
				{
					"sampler":1,
					"target":{
						"node":6,
						"path":"rotation"
					}
				},
				{
					"sampler":2,
					"target":{
						"node":6,
						"path":"scale"
					}
				},
				{
					"sampler":3,
					"target":{
						"node":1,
						"path":"translation"
					}
				},
				{
					"sampler":4,
					"target":{
						"node":1,
						"path":"rotation"
					}
				},
				{
					"sampler":5,
					"target":{
						"node":1,
						"path":"scale"
					}
				},
				{
					"sampler":6,
					"target":{
						"node":3,
						"path":"translation"
					}
				},
				{
					"sampler":7,
					"target":{
						"node":3,
						"path":"rotation"
					}
				},
				{
					"sampler":8,
					"target":{
						"node":3,
						"path":"scale"
					}
				},
				{
					"sampler":9,
					"target":{
						"node":5,
						"path":"translation"
					}
				},
				{
					"sampler":10,
					"target":{
						"node":5,
						"path":"rotation"
					}
				},
				{
					"sampler":11,
					"target":{
						"node":5,
						"path":"scale"
					}
				}
			],
			"name":"Idle",
			"samplers":[
				{
					"input":20,
					"interpolation":"STEP",
					"output":21
				},
				{
					"input":20,
					"interpolation":"STEP",
					"output":22
				},
				{
					"input":20,
					"interpolation":"STEP",
					"output":23
				},
				{
					"input":24,
					"interpolation":"LINEAR",
					"output":25
				},
				{
					"input":24,
					"interpolation":"LINEAR",
					"output":26
				},
				{
					"input":24,
					"interpolation":"LINEAR",
					"output":27
				},
				{
					"input":24,
					"interpolation":"LINEAR",
					"output":28
				},
				{
					"input":20,
					"interpolation":"STEP",
					"output":22
				},
				{
					"input":24,
					"interpolation":"LINEAR",
					"output":29
				},
				{
					"input":24,
					"interpolation":"LINEAR",
					"output":30
				},
				{
					"input":24,
					"interpolation":"LINEAR",
					"output":31
				},
				{
					"input":20,
					"interpolation":"STEP",
					"output":23
				}
			]
		},
		{
			"channels":[
				{
					"sampler":0,
					"target":{
						"node":0,
						"path":"translation"
					}
				},
				{
					"sampler":1,
					"target":{
						"node":0,
						"path":"rotation"
					}
				},
				{
					"sampler":2,
					"target":{
						"node":0,
						"path":"scale"
					}
				}
			],
			"name":"dressThis.arrow",
			"samplers":[
				{
					"input":20,
					"interpolation":"STEP",
					"output":32
				},
				{
					"input":20,
					"interpolation":"STEP",
					"output":33
				},
				{
					"input":20,
					"interpolation":"STEP",
					"output":34
				}
			]
		},
		{
			"channels":[
				{
					"sampler":0,
					"target":{
						"node":2,
						"path":"translation"
					}
				},
				{
					"sampler":1,
					"target":{
						"node":2,
						"path":"rotation"
					}
				},
				{
					"sampler":2,
					"target":{
						"node":2,
						"path":"scale"
					}
				}
			],
			"name":"Text.005",
			"samplers":[
				{
					"input":20,
					"interpolation":"STEP",
					"output":35
				},
				{
					"input":20,
					"interpolation":"STEP",
					"output":36
				},
				{
					"input":20,
					"interpolation":"STEP",
					"output":37
				}
			]
		},
		{
			"channels":[
				{
					"sampler":0,
					"target":{
						"node":4,
						"path":"translation"
					}
				},
				{
					"sampler":1,
					"target":{
						"node":4,
						"path":"rotation"
					}
				},
				{
					"sampler":2,
					"target":{
						"node":4,
						"path":"scale"
					}
				}
			],
			"name":"btn.Left.001",
			"samplers":[
				{
					"input":20,
					"interpolation":"STEP",
					"output":38
				},
				{
					"input":20,
					"interpolation":"STEP",
					"output":39
				},
				{
					"input":20,
					"interpolation":"STEP",
					"output":40
				}
			]
		}
	],
	"materials":[
		{
			"doubleSided":true,
			"emissiveFactor":[
				0.400534987449646,
				0.3740459978580475,
				0.30081748962402344
			],
			"name":"Neon-0.25",
			"pbrMetallicRoughness":{
				"baseColorFactor":[
					0.801069974899292,
					0.748091995716095,
					0.6016349792480469,
					1
				],
				"metallicFactor":0,
				"roughnessFactor":0.5
			}
		},
		{
			"doubleSided":true,
			"name":"MarblePure",
			"pbrMetallicRoughness":{
				"baseColorTexture":{
					"index":0
				},
				"metallicFactor":0,
				"roughnessFactor":0.6000000238418579
			}
		},
		{
			"alphaMode":"BLEND",
			"doubleSided":true,
			"emissiveFactor":[
				1,
				1,
				1
			],
			"emissiveTexture":{
				"index":1
			},
			"name":"ColorWheelFade",
			"pbrMetallicRoughness":{
				"baseColorTexture":{
					"index":2
				},
				"metallicFactor":0
			}
		}
	],
	"meshes":[
		{
			"name":"Cube",
			"primitives":[
				{
					"attributes":{
						"POSITION":0,
						"NORMAL":1,
						"TEXCOORD_0":2
					},
					"indices":3,
					"material":0
				},
				{
					"attributes":{
						"POSITION":4,
						"NORMAL":5,
						"TEXCOORD_0":6
					},
					"indices":7,
					"material":1
				}
			]
		},
		{
			"name":"Text.001",
			"primitives":[
				{
					"attributes":{
						"POSITION":8,
						"NORMAL":9,
						"TEXCOORD_0":10
					},
					"indices":11,
					"material":0
				},
				{
					"attributes":{
						"POSITION":12,
						"NORMAL":13,
						"TEXCOORD_0":14
					},
					"indices":15,
					"material":1
				}
			]
		},
		{
			"name":"Cylinder.014",
			"primitives":[
				{
					"attributes":{
						"POSITION":16,
						"NORMAL":17,
						"TEXCOORD_0":18
					},
					"indices":19,
					"material":2
				}
			]
		}
	],
	"textures":[
		{
			"sampler":0,
			"source":0
		},
		{
			"sampler":0,
			"source":1
		},
		{
			"sampler":0,
			"source":2
		}
	],
	"images":[
		{
			"mimeType":"image/png",
			"name":"MarbleFloor_2D_View",
			"uri":"tex/MarbleFloor_2D_View.png"
		},
		{
			"mimeType":"image/png",
			"name":"color-wheel",
			"uri":"tex/color-wheel.png"
		},
		{
			"mimeType":"image/png",
			"name":"color-wheel-text-gradient",
			"uri":"tex/color-wheel-text-gradient.png"
		}
	],
	"skins":[
		{
			"inverseBindMatrices":41,
			"joints":[
				6,
				1,
				3,
				5
			],
			"name":"Armature"
		}
	],
	"accessors":[
		{
			"bufferView":0,
			"componentType":5126,
			"count":40,
			"max":[
				1,
				1,
				0.8415982723236084
			],
			"min":[
				-1,
				-1.3547918796539307,
				-0.8415982723236084
			],
			"type":"VEC3"
		},
		{
			"bufferView":1,
			"componentType":5126,
			"count":40,
			"type":"VEC3"
		},
		{
			"bufferView":2,
			"componentType":5126,
			"count":40,
			"type":"VEC2"
		},
		{
			"bufferView":3,
			"componentType":5123,
			"count":108,
			"type":"SCALAR"
		},
		{
			"bufferView":4,
			"componentType":5126,
			"count":84,
			"max":[
				1.196738362312317,
				1.1318163871765137,
				0.8415982723236084
			],
			"min":[
				-1.196738362312317,
				-1.50765860080719,
				-0.8415982723236084
			],
			"type":"VEC3"
		},
		{
			"bufferView":5,
			"componentType":5126,
			"count":84,
			"type":"VEC3"
		},
		{
			"bufferView":6,
			"componentType":5126,
			"count":84,
			"type":"VEC2"
		},
		{
			"bufferView":7,
			"componentType":5123,
			"count":240,
			"type":"SCALAR"
		},
		{
			"bufferView":8,
			"componentType":5126,
			"count":375,
			"max":[
				1.2531018257141113,
				0.05000000074505806,
				0.022332506254315376
			],
			"min":[
				-1.2622002363204956,
				0.05000000074505806,
				-0.6095947027206421
			],
			"type":"VEC3"
		},
		{
			"bufferView":9,
			"componentType":5126,
			"count":375,
			"type":"VEC3"
		},
		{
			"bufferView":10,
			"componentType":5126,
			"count":375,
			"type":"VEC2"
		},
		{
			"bufferView":11,
			"componentType":5123,
			"count":1101,
			"type":"SCALAR"
		},
		{
			"bufferView":12,
			"componentType":5126,
			"count":769,
			"max":[
				1.30962073802948,
				0.05000000074505806,
				0.07867255061864853
			],
			"min":[
				-1.3186581134796143,
				-0.05725368857383728,
				-0.6661179065704346
			],
			"type":"VEC3"
		},
		{
			"bufferView":13,
			"componentType":5126,
			"count":769,
			"type":"VEC3"
		},
		{
			"bufferView":14,
			"componentType":5126,
			"count":769,
			"type":"VEC2"
		},
		{
			"bufferView":15,
			"componentType":5123,
			"count":2247,
			"type":"SCALAR"
		},
		{
			"bufferView":16,
			"componentType":5126,
			"count":64,
			"max":[
				0.4697591960430145,
				0.469759464263916,
				0
			],
			"min":[
				-0.4697592556476593,
				-0.4697590172290802,
				0
			],
			"type":"VEC3"
		},
		{
			"bufferView":17,
			"componentType":5126,
			"count":64,
			"type":"VEC3"
		},
		{
			"bufferView":18,
			"componentType":5126,
			"count":64,
			"type":"VEC2"
		},
		{
			"bufferView":19,
			"componentType":5123,
			"count":192,
			"type":"SCALAR"
		},
		{
			"bufferView":20,
			"componentType":5126,
			"count":2,
			"max":[
				5
			],
			"min":[
				0.016666666666666666
			],
			"type":"SCALAR"
		},
		{
			"bufferView":21,
			"componentType":5126,
			"count":2,
			"type":"VEC3"
		},
		{
			"bufferView":22,
			"componentType":5126,
			"count":2,
			"type":"VEC4"
		},
		{
			"bufferView":23,
			"componentType":5126,
			"count":2,
			"type":"VEC3"
		},
		{
			"bufferView":24,
			"componentType":5126,
			"count":300,
			"max":[
				5
			],
			"min":[
				0.016666666666666666
			],
			"type":"SCALAR"
		},
		{
			"bufferView":25,
			"componentType":5126,
			"count":300,
			"type":"VEC3"
		},
		{
			"bufferView":26,
			"componentType":5126,
			"count":300,
			"type":"VEC4"
		},
		{
			"bufferView":27,
			"componentType":5126,
			"count":300,
			"type":"VEC3"
		},
		{
			"bufferView":28,
			"componentType":5126,
			"count":300,
			"type":"VEC3"
		},
		{
			"bufferView":29,
			"componentType":5126,
			"count":300,
			"type":"VEC3"
		},
		{
			"bufferView":30,
			"componentType":5126,
			"count":300,
			"type":"VEC3"
		},
		{
			"bufferView":31,
			"componentType":5126,
			"count":300,
			"type":"VEC4"
		},
		{
			"bufferView":32,
			"componentType":5126,
			"count":2,
			"type":"VEC3"
		},
		{
			"bufferView":33,
			"componentType":5126,
			"count":2,
			"type":"VEC4"
		},
		{
			"bufferView":34,
			"componentType":5126,
			"count":2,
			"type":"VEC3"
		},
		{
			"bufferView":35,
			"componentType":5126,
			"count":2,
			"type":"VEC3"
		},
		{
			"bufferView":36,
			"componentType":5126,
			"count":2,
			"type":"VEC4"
		},
		{
			"bufferView":37,
			"componentType":5126,
			"count":2,
			"type":"VEC3"
		},
		{
			"bufferView":38,
			"componentType":5126,
			"count":2,
			"type":"VEC3"
		},
		{
			"bufferView":39,
			"componentType":5126,
			"count":2,
			"type":"VEC4"
		},
		{
			"bufferView":40,
			"componentType":5126,
			"count":2,
			"type":"VEC3"
		},
		{
			"bufferView":41,
			"componentType":5126,
			"count":4,
			"type":"MAT4"
		}
	],
	"bufferViews":[
		{
			"buffer":0,
			"byteLength":480,
			"byteOffset":0,
			"target":34962
		},
		{
			"buffer":0,
			"byteLength":480,
			"byteOffset":480,
			"target":34962
		},
		{
			"buffer":0,
			"byteLength":320,
			"byteOffset":960,
			"target":34962
		},
		{
			"buffer":0,
			"byteLength":216,
			"byteOffset":1280,
			"target":34963
		},
		{
			"buffer":0,
			"byteLength":1008,
			"byteOffset":1496,
			"target":34962
		},
		{
			"buffer":0,
			"byteLength":1008,
			"byteOffset":2504,
			"target":34962
		},
		{
			"buffer":0,
			"byteLength":672,
			"byteOffset":3512,
			"target":34962
		},
		{
			"buffer":0,
			"byteLength":480,
			"byteOffset":4184,
			"target":34963
		},
		{
			"buffer":0,
			"byteLength":4500,
			"byteOffset":4664,
			"target":34962
		},
		{
			"buffer":0,
			"byteLength":4500,
			"byteOffset":9164,
			"target":34962
		},
		{
			"buffer":0,
			"byteLength":3000,
			"byteOffset":13664,
			"target":34962
		},
		{
			"buffer":0,
			"byteLength":2202,
			"byteOffset":16664,
			"target":34963
		},
		{
			"buffer":0,
			"byteLength":9228,
			"byteOffset":18868,
			"target":34962
		},
		{
			"buffer":0,
			"byteLength":9228,
			"byteOffset":28096,
			"target":34962
		},
		{
			"buffer":0,
			"byteLength":6152,
			"byteOffset":37324,
			"target":34962
		},
		{
			"buffer":0,
			"byteLength":4494,
			"byteOffset":43476,
			"target":34963
		},
		{
			"buffer":0,
			"byteLength":768,
			"byteOffset":47972,
			"target":34962
		},
		{
			"buffer":0,
			"byteLength":768,
			"byteOffset":48740,
			"target":34962
		},
		{
			"buffer":0,
			"byteLength":512,
			"byteOffset":49508,
			"target":34962
		},
		{
			"buffer":0,
			"byteLength":384,
			"byteOffset":50020,
			"target":34963
		},
		{
			"buffer":0,
			"byteLength":8,
			"byteOffset":50404
		},
		{
			"buffer":0,
			"byteLength":24,
			"byteOffset":50412
		},
		{
			"buffer":0,
			"byteLength":32,
			"byteOffset":50436
		},
		{
			"buffer":0,
			"byteLength":24,
			"byteOffset":50468
		},
		{
			"buffer":0,
			"byteLength":1200,
			"byteOffset":50492
		},
		{
			"buffer":0,
			"byteLength":3600,
			"byteOffset":51692
		},
		{
			"buffer":0,
			"byteLength":4800,
			"byteOffset":55292
		},
		{
			"buffer":0,
			"byteLength":3600,
			"byteOffset":60092
		},
		{
			"buffer":0,
			"byteLength":3600,
			"byteOffset":63692
		},
		{
			"buffer":0,
			"byteLength":3600,
			"byteOffset":67292
		},
		{
			"buffer":0,
			"byteLength":3600,
			"byteOffset":70892
		},
		{
			"buffer":0,
			"byteLength":4800,
			"byteOffset":74492
		},
		{
			"buffer":0,
			"byteLength":24,
			"byteOffset":79292
		},
		{
			"buffer":0,
			"byteLength":32,
			"byteOffset":79316
		},
		{
			"buffer":0,
			"byteLength":24,
			"byteOffset":79348
		},
		{
			"buffer":0,
			"byteLength":24,
			"byteOffset":79372
		},
		{
			"buffer":0,
			"byteLength":32,
			"byteOffset":79396
		},
		{
			"buffer":0,
			"byteLength":24,
			"byteOffset":79428
		},
		{
			"buffer":0,
			"byteLength":24,
			"byteOffset":79452
		},
		{
			"buffer":0,
			"byteLength":32,
			"byteOffset":79476
		},
		{
			"buffer":0,
			"byteLength":24,
			"byteOffset":79508
		},
		{
			"buffer":0,
			"byteLength":256,
			"byteOffset":79532
		}
	],
	"samplers":[
		{
			"magFilter":9729,
			"minFilter":9987
		}
	],
	"buffers":[
		{
			"byteLength":79788,
			"uri":"dressThis.bin"
		}
	]
}
