{
	"asset":{
		"generator":"Khronos glTF Blender I/O v4.5.49",
		"version":"2.0"
	},
	"scene":0,
	"scenes":[
		{
			"name":"Scene",
			"nodes":[
				0,
				1
			]
		}
	],
	"nodes":[
		{
			"mesh":0,
			"name":"upper_body._collider_box",
			"translation":[
				0,
				1.2910032272338867,
				-0.10000000149011612
			]
		},
		{
			"mesh":1,
			"name":"Cylinder.007",
			"translation":[
				0,
				1.3275507688522339,
				0.02499999850988388
			]
		}
	],
	"materials":[
		{
			"doubleSided":true,
			"emissiveFactor":[
				0.400534987449646,
				0.3740459978580475,
				0.30081748962402344
			],
			"name":"Neon-0.25",
			"pbrMetallicRoughness":{
				"baseColorFactor":[
					0.801069974899292,
					0.748091995716095,
					0.6016349792480469,
					1
				],
				"metallicFactor":0,
				"roughnessFactor":0.5
			}
		},
		{
			"doubleSided":true,
			"emissiveFactor":[
				0.2628967761993408,
				0.037981968373060226,
				0.006995104253292084
			],
			"name":"Neon-orange-0.5",
			"pbrMetallicRoughness":{
				"baseColorFactor":[
					0.5257935523986816,
					0.07596393674612045,
					0.013990208506584167,
					1
				],
				"metallicFactor":0,
				"roughnessFactor":0.5
			}
		}
	],
	"meshes":[
		{
			"name":"Cube.202",
			"primitives":[
				{
					"attributes":{
						"POSITION":0,
						"NORMAL":1,
						"TEXCOORD_0":2
					},
					"indices":3
				}
			]
		},
		{
			"name":"Cylinder.007",
			"primitives":[
				{
					"attributes":{
						"POSITION":4,
						"NORMAL":5,
						"TEXCOORD_0":6
					},
					"indices":7,
					"material":0
				},
				{
					"attributes":{
						"POSITION":8,
						"NORMAL":9,
						"TEXCOORD_0":10
					},
					"indices":11,
					"material":1
				}
			]
		}
	],
	"accessors":[
		{
			"bufferView":0,
			"componentType":5126,
			"count":24,
			"max":[
				0.3714562654495239,
				0.37317007780075073,
				0.25
			],
			"min":[
				-0.3714562654495239,
				-0.37317007780075073,
				-0.25
			],
			"type":"VEC3"
		},
		{
			"bufferView":1,
			"componentType":5126,
			"count":24,
			"type":"VEC3"
		},
		{
			"bufferView":2,
			"componentType":5126,
			"count":24,
			"type":"VEC2"
		},
		{
			"bufferView":3,
			"componentType":5123,
			"count":36,
			"type":"SCALAR"
		},
		{
			"bufferView":4,
			"componentType":5126,
			"count":323,
			"max":[
				0.2043183445930481,
				0.2043183445930481,
				8.549911001409782e-09
			],
			"min":[
				-0.2043183445930481,
				-0.20431837439537048,
				-0.08140458166599274
			],
			"type":"VEC3"
		},
		{
			"bufferView":5,
			"componentType":5126,
			"count":323,
			"type":"VEC3"
		},
		{
			"bufferView":6,
			"componentType":5126,
			"count":323,
			"type":"VEC2"
		},
		{
			"bufferView":7,
			"componentType":5123,
			"count":1152,
			"type":"SCALAR"
		},
		{
			"bufferView":8,
			"componentType":5126,
			"count":148,
			"max":[
				0.03992748260498047,
				0.13968729972839355,
				-3.1285599106922746e-05
			],
			"min":[
				-0.04297714680433273,
				-0.14985798299312592,
				-0.08137328177690506
			],
			"type":"VEC3"
		},
		{
			"bufferView":9,
			"componentType":5126,
			"count":148,
			"type":"VEC3"
		},
		{
			"bufferView":10,
			"componentType":5126,
			"count":148,
			"type":"VEC2"
		},
		{
			"bufferView":11,
			"componentType":5123,
			"count":420,
			"type":"SCALAR"
		}
	],
	"bufferViews":[
		{
			"buffer":0,
			"byteLength":288,
			"byteOffset":0,
			"target":34962
		},
		{
			"buffer":0,
			"byteLength":288,
			"byteOffset":288,
			"target":34962
		},
		{
			"buffer":0,
			"byteLength":192,
			"byteOffset":576,
			"target":34962
		},
		{
			"buffer":0,
			"byteLength":72,
			"byteOffset":768,
			"target":34963
		},
		{
			"buffer":0,
			"byteLength":3876,
			"byteOffset":840,
			"target":34962
		},
		{
			"buffer":0,
			"byteLength":3876,
			"byteOffset":4716,
			"target":34962
		},
		{
			"buffer":0,
			"byteLength":2584,
			"byteOffset":8592,
			"target":34962
		},
		{
			"buffer":0,
			"byteLength":2304,
			"byteOffset":11176,
			"target":34963
		},
		{
			"buffer":0,
			"byteLength":1776,
			"byteOffset":13480,
			"target":34962
		},
		{
			"buffer":0,
			"byteLength":1776,
			"byteOffset":15256,
			"target":34962
		},
		{
			"buffer":0,
			"byteLength":1184,
			"byteOffset":17032,
			"target":34962
		},
		{
			"buffer":0,
			"byteLength":840,
			"byteOffset":18216,
			"target":34963
		}
	],
	"buffers":[
		{
			"byteLength":19056,
			"uri":"error.upper_body.bin"
		}
	]
}
