{
	"asset":{
		"generator":"Khronos glTF Blender I/O v4.5.49",
		"version":"2.0"
	},
	"scene":0,
	"scenes":[
		{
			"name":"Scene",
			"nodes":[
				0,
				1
			]
		}
	],
	"nodes":[
		{
			"mesh":0,
			"name":"Cylinder.003",
			"scale":[
				1.5,
				1.5,
				1.5
			],
			"translation":[
				0,
				0.5676188468933105,
				0.02499999850988388
			]
		},
		{
			"mesh":1,
			"name":"lower_body.001._collider_box",
			"translation":[
				0,
				0.48476582765579224,
				-0.10000000149011612
			]
		}
	],
	"animations":[
		{
			"channels":[
				{
					"sampler":0,
					"target":{
						"node":0,
						"path":"translation"
					}
				},
				{
					"sampler":1,
					"target":{
						"node":0,
						"path":"rotation"
					}
				},
				{
					"sampler":2,
					"target":{
						"node":0,
						"path":"scale"
					}
				}
			],
			"name":"Cylinder.003Action",
			"samplers":[
				{
					"input":12,
					"interpolation":"STEP",
					"output":13
				},
				{
					"input":14,
					"interpolation":"LINEAR",
					"output":15
				},
				{
					"input":12,
					"interpolation":"STEP",
					"output":16
				}
			]
		}
	],
	"materials":[
		{
			"doubleSided":true,
			"emissiveFactor":[
				0.400534987449646,
				0.3740459978580475,
				0.30081748962402344
			],
			"name":"Neon-0.25",
			"pbrMetallicRoughness":{
				"baseColorFactor":[
					0.801069974899292,
					0.748091995716095,
					0.6016349792480469,
					1
				],
				"metallicFactor":0,
				"roughnessFactor":0.5
			}
		},
		{
			"doubleSided":true,
			"emissiveFactor":[
				0.2628967761993408,
				0.037981968373060226,
				0.006995104253292084
			],
			"name":"Neon-orange-0.5",
			"pbrMetallicRoughness":{
				"baseColorFactor":[
					0.5257935523986816,
					0.07596393674612045,
					0.013990208506584167,
					1
				],
				"metallicFactor":0,
				"roughnessFactor":0.5
			}
		}
	],
	"meshes":[
		{
			"name":"Cylinder.003",
			"primitives":[
				{
					"attributes":{
						"POSITION":0,
						"NORMAL":1,
						"TEXCOORD_0":2
					},
					"indices":3,
					"material":0
				},
				{
					"attributes":{
						"POSITION":4,
						"NORMAL":5,
						"TEXCOORD_0":6
					},
					"indices":7,
					"material":1
				}
			]
		},
		{
			"name":"Cube.204",
			"primitives":[
				{
					"attributes":{
						"POSITION":8,
						"NORMAL":9,
						"TEXCOORD_0":10
					},
					"indices":11
				}
			]
		}
	],
	"accessors":[
		{
			"bufferView":0,
			"componentType":5126,
			"count":323,
			"max":[
				0.13621222972869873,
				0.13621222972869873,
				5.699940519576785e-09
			],
			"min":[
				-0.13621222972869873,
				-0.13621224462985992,
				-0.05426971986889839
			],
			"type":"VEC3"
		},
		{
			"bufferView":1,
			"componentType":5126,
			"count":323,
			"type":"VEC3"
		},
		{
			"bufferView":2,
			"componentType":5126,
			"count":323,
			"type":"VEC2"
		},
		{
			"bufferView":3,
			"componentType":5123,
			"count":1152,
			"type":"SCALAR"
		},
		{
			"bufferView":4,
			"componentType":5126,
			"count":148,
			"max":[
				0.026618322357535362,
				0.0931248664855957,
				-2.085706546495203e-05
			],
			"min":[
				-0.02865143120288849,
				-0.09990531951189041,
				-0.05424885451793671
			],
			"type":"VEC3"
		},
		{
			"bufferView":5,
			"componentType":5126,
			"count":148,
			"type":"VEC3"
		},
		{
			"bufferView":6,
			"componentType":5126,
			"count":148,
			"type":"VEC2"
		},
		{
			"bufferView":7,
			"componentType":5123,
			"count":420,
			"type":"SCALAR"
		},
		{
			"bufferView":8,
			"componentType":5126,
			"count":24,
			"max":[
				0.25,
				0.5288344621658325,
				0.25
			],
			"min":[
				-0.25,
				-0.5288344621658325,
				-0.25
			],
			"type":"VEC3"
		},
		{
			"bufferView":9,
			"componentType":5126,
			"count":24,
			"type":"VEC3"
		},
		{
			"bufferView":10,
			"componentType":5126,
			"count":24,
			"type":"VEC2"
		},
		{
			"bufferView":11,
			"componentType":5123,
			"count":36,
			"type":"SCALAR"
		},
		{
			"bufferView":12,
			"componentType":5126,
			"count":2,
			"max":[
				1.375
			],
			"min":[
				0
			],
			"type":"SCALAR"
		},
		{
			"bufferView":13,
			"componentType":5126,
			"count":2,
			"type":"VEC3"
		},
		{
			"bufferView":14,
			"componentType":5126,
			"count":34,
			"max":[
				1.375
			],
			"min":[
				0
			],
			"type":"SCALAR"
		},
		{
			"bufferView":15,
			"componentType":5126,
			"count":34,
			"type":"VEC4"
		},
		{
			"bufferView":16,
			"componentType":5126,
			"count":2,
			"type":"VEC3"
		}
	],
	"bufferViews":[
		{
			"buffer":0,
			"byteLength":3876,
			"byteOffset":0,
			"target":34962
		},
		{
			"buffer":0,
			"byteLength":3876,
			"byteOffset":3876,
			"target":34962
		},
		{
			"buffer":0,
			"byteLength":2584,
			"byteOffset":7752,
			"target":34962
		},
		{
			"buffer":0,
			"byteLength":2304,
			"byteOffset":10336,
			"target":34963
		},
		{
			"buffer":0,
			"byteLength":1776,
			"byteOffset":12640,
			"target":34962
		},
		{
			"buffer":0,
			"byteLength":1776,
			"byteOffset":14416,
			"target":34962
		},
		{
			"buffer":0,
			"byteLength":1184,
			"byteOffset":16192,
			"target":34962
		},
		{
			"buffer":0,
			"byteLength":840,
			"byteOffset":17376,
			"target":34963
		},
		{
			"buffer":0,
			"byteLength":288,
			"byteOffset":18216,
			"target":34962
		},
		{
			"buffer":0,
			"byteLength":288,
			"byteOffset":18504,
			"target":34962
		},
		{
			"buffer":0,
			"byteLength":192,
			"byteOffset":18792,
			"target":34962
		},
		{
			"buffer":0,
			"byteLength":72,
			"byteOffset":18984,
			"target":34963
		},
		{
			"buffer":0,
			"byteLength":8,
			"byteOffset":19056
		},
		{
			"buffer":0,
			"byteLength":24,
			"byteOffset":19064
		},
		{
			"buffer":0,
			"byteLength":136,
			"byteOffset":19088
		},
		{
			"buffer":0,
			"byteLength":544,
			"byteOffset":19224
		},
		{
			"buffer":0,
			"byteLength":24,
			"byteOffset":19768
		}
	],
	"buffers":[
		{
			"byteLength":19792,
			"uri":"error.lower_body.bin"
		}
	]
}
