{
	"asset":{
		"generator":"Khronos glTF Blender I/O v4.5.49",
		"version":"2.0"
	},
	"scene":0,
	"scenes":[
		{
			"name":"Scene",
			"nodes":[
				0,
				1
			]
		}
	],
	"nodes":[
		{
			"mesh":0,
			"name":"earrings_collider",
			"translation":[
				0,
				1.6420544385910034,
				0.02499999850988388
			]
		},
		{
			"mesh":1,
			"name":"Cylinder.001",
			"translation":[
				0,
				1.6437057256698608,
				0.02499999850988388
			]
		}
	],
	"materials":[
		{
			"doubleSided":true,
			"emissiveFactor":[
				0.400534987449646,
				0.3740459978580475,
				0.30081748962402344
			],
			"name":"Neon-0.25",
			"pbrMetallicRoughness":{
				"baseColorFactor":[
					0.801069974899292,
					0.748091995716095,
					0.6016349792480469,
					1
				],
				"metallicFactor":0,
				"roughnessFactor":0.5
			}
		},
		{
			"doubleSided":true,
			"emissiveFactor":[
				0.2628967761993408,
				0.037981968373060226,
				0.006995104253292084
			],
			"name":"Neon-orange-0.5",
			"pbrMetallicRoughness":{
				"baseColorFactor":[
					0.5257935523986816,
					0.07596393674612045,
					0.013990208506584167,
					1
				],
				"metallicFactor":0,
				"roughnessFactor":0.5
			}
		}
	],
	"meshes":[
		{
			"name":"Cube.213",
			"primitives":[
				{
					"attributes":{
						"POSITION":0,
						"NORMAL":1,
						"TEXCOORD_0":2
					},
					"indices":3
				}
			]
		},
		{
			"name":"Cylinder.001",
			"primitives":[
				{
					"attributes":{
						"POSITION":4,
						"NORMAL":5,
						"TEXCOORD_0":6
					},
					"indices":7,
					"material":0
				},
				{
					"attributes":{
						"POSITION":8,
						"NORMAL":9,
						"TEXCOORD_0":10
					},
					"indices":11,
					"material":1
				}
			]
		}
	],
	"accessors":[
		{
			"bufferView":0,
			"componentType":5126,
			"count":24,
			"max":[
				0.2182312309741974,
				0.13446044921875,
				0.125
			],
			"min":[
				-0.2182312309741974,
				-0.13446044921875,
				-0.125
			],
			"type":"VEC3"
		},
		{
			"bufferView":1,
			"componentType":5126,
			"count":24,
			"type":"VEC3"
		},
		{
			"bufferView":2,
			"componentType":5126,
			"count":24,
			"type":"VEC2"
		},
		{
			"bufferView":3,
			"componentType":5123,
			"count":36,
			"type":"SCALAR"
		},
		{
			"bufferView":4,
			"componentType":5126,
			"count":323,
			"max":[
				0.06810611486434937,
				0.06810611486434937,
				2.8499702597883925e-09
			],
			"min":[
				-0.06810611486434937,
				-0.06810612231492996,
				-0.027134859934449196
			],
			"type":"VEC3"
		},
		{
			"bufferView":5,
			"componentType":5126,
			"count":323,
			"type":"VEC3"
		},
		{
			"bufferView":6,
			"componentType":5126,
			"count":323,
			"type":"VEC2"
		},
		{
			"bufferView":7,
			"componentType":5123,
			"count":1152,
			"type":"SCALAR"
		},
		{
			"bufferView":8,
			"componentType":5126,
			"count":148,
			"max":[
				0.013309161178767681,
				0.04656243324279785,
				-1.0428532732476015e-05
			],
			"min":[
				-0.014325715601444244,
				-0.049952659755945206,
				-0.027124427258968353
			],
			"type":"VEC3"
		},
		{
			"bufferView":9,
			"componentType":5126,
			"count":148,
			"type":"VEC3"
		},
		{
			"bufferView":10,
			"componentType":5126,
			"count":148,
			"type":"VEC2"
		},
		{
			"bufferView":11,
			"componentType":5123,
			"count":420,
			"type":"SCALAR"
		}
	],
	"bufferViews":[
		{
			"buffer":0,
			"byteLength":288,
			"byteOffset":0,
			"target":34962
		},
		{
			"buffer":0,
			"byteLength":288,
			"byteOffset":288,
			"target":34962
		},
		{
			"buffer":0,
			"byteLength":192,
			"byteOffset":576,
			"target":34962
		},
		{
			"buffer":0,
			"byteLength":72,
			"byteOffset":768,
			"target":34963
		},
		{
			"buffer":0,
			"byteLength":3876,
			"byteOffset":840,
			"target":34962
		},
		{
			"buffer":0,
			"byteLength":3876,
			"byteOffset":4716,
			"target":34962
		},
		{
			"buffer":0,
			"byteLength":2584,
			"byteOffset":8592,
			"target":34962
		},
		{
			"buffer":0,
			"byteLength":2304,
			"byteOffset":11176,
			"target":34963
		},
		{
			"buffer":0,
			"byteLength":1776,
			"byteOffset":13480,
			"target":34962
		},
		{
			"buffer":0,
			"byteLength":1776,
			"byteOffset":15256,
			"target":34962
		},
		{
			"buffer":0,
			"byteLength":1184,
			"byteOffset":17032,
			"target":34962
		},
		{
			"buffer":0,
			"byteLength":840,
			"byteOffset":18216,
			"target":34963
		}
	],
	"buffers":[
		{
			"byteLength":19056,
			"uri":"error.earring.bin"
		}
	]
}
