{
	"asset":{
		"generator":"Khronos glTF Blender I/O v4.5.51",
		"version":"2.0"
	},
	"scene":0,
	"scenes":[
		{
			"name":"Scene",
			"nodes":[
				31
			]
		}
	],
	"nodes":[
		{
			"name":"CTRL_pigeonE_head",
			"rotation":[
				1.4901162970204496e-08,
				-1.4210854715202004e-14,
				1.0587891014750856e-22,
				1
			],
			"translation":[
				-2.220446049250313e-13,
				0.07622689008712769,
				3.6100615830036986e-09
			]
		},
		{
			"children":[
				0
			],
			"name":"CTRL_pigeonE_neck",
			"rotation":[
				-0.18184854090213776,
				9.03238580799012e-15,
				-4.33560636281527e-08,
				0.9833265542984009
			],
			"scale":[
				1,
				0.9999999403953552,
				0.9999999403953552
			],
			"translation":[
				-1.2967404927621828e-13,
				0.20705562829971313,
				-1.7053025658242404e-12
			]
		},
		{
			"name":"CTRL_pigeonE_wing.L",
			"rotation":[
				-0.6277626156806946,
				-0.4688839614391327,
				-0.32617345452308655,
				0.528840959072113
			],
			"scale":[
				1,
				1,
				1.0000001192092896
			],
			"translation":[
				0.07453608512878418,
				0.13539531826972961,
				0.0016749828355386853
			]
		},
		{
			"name":"CTRL_pigeonE_wing.R",
			"rotation":[
				-0.5305046439170837,
				0.3274160623550415,
				0.46801698207855225,
				0.6263575553894043
			],
			"scale":[
				1.0000001192092896,
				1.0000001192092896,
				1.0000001192092896
			],
			"translation":[
				-0.07453632354736328,
				0.13539531826972961,
				0.0016749434871599078
			]
		},
		{
			"children":[
				1,
				2,
				3
			],
			"name":"CTRL_pigeonE_spine",
			"rotation":[
				0.18184854090213776,
				1.1722166703975745e-07,
				2.1678033590433188e-08,
				0.9833265542984009
			],
			"scale":[
				1,
				0.9999999403953552,
				0.9999999403953552
			],
			"translation":[
				0,
				0.10160237550735474,
				0
			]
		},
		{
			"children":[
				4
			],
			"name":"CTRL_pigeonE_root",
			"translation":[
				-7.152557373046875e-06,
				0,
				0
			]
		},
		{
			"children":[
				5
			],
			"name":"Prop_Root"
		},
		{
			"name":"DEF_pigeonE_head",
			"rotation":[
				1.4901162970204496e-08,
				-1.4210854715202004e-14,
				1.0587891014750856e-22,
				1
			],
			"translation":[
				-2.220446049250313e-13,
				0.07622689008712769,
				3.6100615830036986e-09
			]
		},
		{
			"children":[
				7
			],
			"name":"DEF_pigeonE_neck",
			"rotation":[
				-0.18184854090213776,
				9.03238580799012e-15,
				-4.33560636281527e-08,
				0.9833265542984009
			],
			"scale":[
				1,
				0.9999999403953552,
				0.9999999403953552
			],
			"translation":[
				-1.2967404927621828e-13,
				0.20705562829971313,
				-1.7053025658242404e-12
			]
		},
		{
			"name":"DEF_pigeonE_wing.L",
			"rotation":[
				-0.6277626156806946,
				-0.4688839614391327,
				-0.32617345452308655,
				0.528840959072113
			],
			"scale":[
				1,
				1,
				1.0000001192092896
			],
			"translation":[
				0.07453608512878418,
				0.13539531826972961,
				0.0016749828355386853
			]
		},
		{
			"name":"DEF_pigeonE_wing.R",
			"rotation":[
				-0.5305046439170837,
				0.3274160623550415,
				0.46801698207855225,
				0.6263575553894043
			],
			"scale":[
				1.0000001192092896,
				1.0000001192092896,
				1.0000001192092896
			],
			"translation":[
				-0.07453632354736328,
				0.13539531826972961,
				0.0016749434871599078
			]
		},
		{
			"name":"DEF_pigeonE_shin.R",
			"rotation":[
				0.06236317381262779,
				-0.024996036663651466,
				0.41282400488853455,
				0.908329427242279
			],
			"scale":[
				1.0000001192092896,
				0.9999998807907104,
				0.9999998211860657
			],
			"translation":[
				-6.984919309616089e-10,
				0.07106278836727142,
				1.979060471057892e-09
			]
		},
		{
			"children":[
				11
			],
			"name":"DEF_pigeonE_leg.R",
			"rotation":[
				0.7047938108444214,
				0.07997126877307892,
				-0.7047297954559326,
				0.015039963647723198
			],
			"scale":[
				0.9999927282333374,
				0.9999998211860657,
				0.9999966025352478
			],
			"translation":[
				-0.053406719118356705,
				0.0052201771177351475,
				0.020325422286987305
			]
		},
		{
			"name":"MCH_pigeonE_shin.R",
			"rotation":[
				0.06236317381262779,
				-0.024996036663651466,
				0.41282400488853455,
				0.908329427242279
			],
			"scale":[
				1.0000001192092896,
				0.9999998807907104,
				0.9999998211860657
			],
			"translation":[
				-6.984919309616089e-10,
				0.07106278836727142,
				1.979060471057892e-09
			]
		},
		{
			"children":[
				13
			],
			"name":"MCH_pigeonE_leg.R",
			"rotation":[
				0.7047938108444214,
				0.07997126877307892,
				-0.7047297954559326,
				0.015039963647723198
			],
			"scale":[
				0.9999927282333374,
				0.9999998211860657,
				0.9999966025352478
			],
			"translation":[
				-0.053406719118356705,
				0.0052201771177351475,
				0.020325422286987305
			]
		},
		{
			"name":"DEF_pigeonE_shin.L",
			"rotation":[
				-0.059828270226716995,
				0.03056410327553749,
				0.4131982922554016,
				0.9081594347953796
			],
			"scale":[
				1,
				0.9999998807907104,
				0.9999998807907104
			],
			"translation":[
				-3.2014213502407074e-10,
				0.07106275856494904,
				-2.3865140974521637e-09
			]
		},
		{
			"children":[
				15
			],
			"name":"DEF_pigeonE_leg.L",
			"rotation":[
				-0.7003956437110901,
				0.014548731967806816,
				0.7091012001037598,
				0.08006171882152557
			],
			"scale":[
				0.9999971389770508,
				0.9999999403953552,
				0.9999986886978149
			],
			"translation":[
				0.053406473249197006,
				0.0052201757207512856,
				0.020325444638729095
			]
		},
		{
			"name":"MCH_pigeonE_shin.L",
			"rotation":[
				-0.059828270226716995,
				0.03056410327553749,
				0.4131982922554016,
				0.9081594347953796
			],
			"scale":[
				1,
				0.9999998807907104,
				0.9999998807907104
			],
			"translation":[
				-3.2014213502407074e-10,
				0.07106275856494904,
				-2.3865140974521637e-09
			]
		},
		{
			"children":[
				17
			],
			"name":"MCH_pigeonE_leg.L",
			"rotation":[
				-0.7003956437110901,
				0.014548731967806816,
				0.7091012001037598,
				0.08006171882152557
			],
			"scale":[
				0.9999971389770508,
				0.9999999403953552,
				0.9999986886978149
			],
			"translation":[
				0.053406473249197006,
				0.0052201757207512856,
				0.020325444638729095
			]
		},
		{
			"children":[
				8,
				9,
				10,
				12,
				14,
				16,
				18
			],
			"name":"DEF_pigeonE_spine",
			"rotation":[
				0.18184854090213776,
				1.1722166703975745e-07,
				2.1678033590433188e-08,
				0.9833265542984009
			],
			"scale":[
				1,
				0.9999999403953552,
				0.9999999403953552
			],
			"translation":[
				0,
				0.10160237550735474,
				0
			]
		},
		{
			"name":"DEF_pigeonE_foot.R",
			"rotation":[
				-0.00012483668979257345,
				-0.07215634733438492,
				-0.9949688911437988,
				0.0695011243224144
			],
			"scale":[
				0.9999976754188538,
				1,
				0.9999974370002747
			],
			"translation":[
				2.764863893389702e-10,
				-2.6775524020195007e-09,
				-5.180481821298599e-09
			]
		},
		{
			"name":"MCH_pigeonE_foot.R",
			"rotation":[
				-0.00012483668979257345,
				-0.07215634733438492,
				-0.9949688911437988,
				0.0695011243224144
			],
			"scale":[
				0.9999976754188538,
				1,
				0.9999974370002747
			],
			"translation":[
				2.764863893389702e-10,
				-2.6775524020195007e-09,
				-5.180481821298599e-09
			]
		},
		{
			"children":[
				20,
				21
			],
			"name":"IK_pigeonE_leg.R",
			"rotation":[
				-0.4331413805484772,
				-0.48493945598602295,
				0.49436840415000916,
				0.5769073963165283
			],
			"scale":[
				0.9999999403953552,
				0.9999998807907104,
				1
			],
			"translation":[
				2.9103830456733704e-10,
				-2.3283064365386963e-09,
				5.820766091346741e-10
			]
		},
		{
			"children":[
				22
			],
			"name":"CTRL_IK_pigeonE_foot.R",
			"rotation":[
				0,
				-0.22307153046131134,
				0,
				0.9748021364212036
			],
			"scale":[
				0.9999999403953552,
				1,
				0.9999999403953552
			],
			"translation":[
				-0.043889522552490234,
				0.007416538894176483,
				0.0016466104425489902
			]
		},
		{
			"name":"DEF_pigeonE_foot.L",
			"rotation":[
				-0.05383214354515076,
				0.07132108509540558,
				-0.9935120940208435,
				0.07035078853368759
			],
			"scale":[
				1,
				0.9999999403953552,
				0.9999999403953552
			],
			"translation":[
				6.402842700481415e-10,
				2.0954757928848267e-09,
				-4.71482053399086e-09
			]
		},
		{
			"name":"MCH_pigeonE_foot.L",
			"rotation":[
				-0.05383214354515076,
				0.07132108509540558,
				-0.9935120940208435,
				0.07035078853368759
			],
			"scale":[
				1,
				0.9999999403953552,
				0.9999999403953552
			],
			"translation":[
				6.402842700481415e-10,
				2.0954757928848267e-09,
				-4.71482053399086e-09
			]
		},
		{
			"children":[
				24,
				25
			],
			"name":"IK_pigeonE_leg.L",
			"rotation":[
				-0.4859257638454437,
				-0.5879678726196289,
				0.44259247183799744,
				0.47146791219711304
			],
			"translation":[
				6.402842700481415e-10,
				-1.862645149230957e-09,
				8.149072527885437e-10
			]
		},
		{
			"children":[
				26
			],
			"name":"CTRL_IK_pigeonE_foot.L",
			"rotation":[
				0,
				0.22495105862617493,
				0,
				0.9743700623512268
			],
			"translation":[
				0.043889522552490234,
				0.007416538894176483,
				0.0016466104425489902
			]
		},
		{
			"children":[
				19,
				23,
				27
			],
			"name":"DEF_pigeonE_root",
			"translation":[
				-7.152557373046875e-06,
				0,
				0
			]
		},
		{
			"children":[
				6,
				28
			],
			"name":"Armature_Prop"
		},
		{
			"mesh":0,
			"name":"Pigeon_E",
			"skin":0
		},
		{
			"children":[
				29,
				30
			],
			"name":"Pidgeon_01.root"
		}
	],
	"animations":[
		{
			"channels":[
				{
					"sampler":0,
					"target":{
						"node":6,
						"path":"translation"
					}
				},
				{
					"sampler":1,
					"target":{
						"node":6,
						"path":"rotation"
					}
				},
				{
					"sampler":2,
					"target":{
						"node":6,
						"path":"scale"
					}
				},
				{
					"sampler":3,
					"target":{
						"node":5,
						"path":"translation"
					}
				},
				{
					"sampler":4,
					"target":{
						"node":5,
						"path":"rotation"
					}
				},
				{
					"sampler":5,
					"target":{
						"node":5,
						"path":"scale"
					}
				},
				{
					"sampler":6,
					"target":{
						"node":4,
						"path":"translation"
					}
				},
				{
					"sampler":7,
					"target":{
						"node":4,
						"path":"rotation"
					}
				},
				{
					"sampler":8,
					"target":{
						"node":4,
						"path":"scale"
					}
				},
				{
					"sampler":9,
					"target":{
						"node":1,
						"path":"translation"
					}
				},
				{
					"sampler":10,
					"target":{
						"node":1,
						"path":"rotation"
					}
				},
				{
					"sampler":11,
					"target":{
						"node":1,
						"path":"scale"
					}
				},
				{
					"sampler":12,
					"target":{
						"node":0,
						"path":"translation"
					}
				},
				{
					"sampler":13,
					"target":{
						"node":0,
						"path":"rotation"
					}
				},
				{
					"sampler":14,
					"target":{
						"node":0,
						"path":"scale"
					}
				},
				{
					"sampler":15,
					"target":{
						"node":2,
						"path":"translation"
					}
				},
				{
					"sampler":16,
					"target":{
						"node":2,
						"path":"rotation"
					}
				},
				{
					"sampler":17,
					"target":{
						"node":2,
						"path":"scale"
					}
				},
				{
					"sampler":18,
					"target":{
						"node":3,
						"path":"translation"
					}
				},
				{
					"sampler":19,
					"target":{
						"node":3,
						"path":"rotation"
					}
				},
				{
					"sampler":20,
					"target":{
						"node":3,
						"path":"scale"
					}
				},
				{
					"sampler":21,
					"target":{
						"node":28,
						"path":"translation"
					}
				},
				{
					"sampler":22,
					"target":{
						"node":28,
						"path":"rotation"
					}
				},
				{
					"sampler":23,
					"target":{
						"node":28,
						"path":"scale"
					}
				},
				{
					"sampler":24,
					"target":{
						"node":19,
						"path":"translation"
					}
				},
				{
					"sampler":25,
					"target":{
						"node":19,
						"path":"rotation"
					}
				},
				{
					"sampler":26,
					"target":{
						"node":19,
						"path":"scale"
					}
				},
				{
					"sampler":27,
					"target":{
						"node":8,
						"path":"translation"
					}
				},
				{
					"sampler":28,
					"target":{
						"node":8,
						"path":"rotation"
					}
				},
				{
					"sampler":29,
					"target":{
						"node":8,
						"path":"scale"
					}
				},
				{
					"sampler":30,
					"target":{
						"node":7,
						"path":"translation"
					}
				},
				{
					"sampler":31,
					"target":{
						"node":7,
						"path":"rotation"
					}
				},
				{
					"sampler":32,
					"target":{
						"node":7,
						"path":"scale"
					}
				},
				{
					"sampler":33,
					"target":{
						"node":9,
						"path":"translation"
					}
				},
				{
					"sampler":34,
					"target":{
						"node":9,
						"path":"rotation"
					}
				},
				{
					"sampler":35,
					"target":{
						"node":9,
						"path":"scale"
					}
				},
				{
					"sampler":36,
					"target":{
						"node":10,
						"path":"translation"
					}
				},
				{
					"sampler":37,
					"target":{
						"node":10,
						"path":"rotation"
					}
				},
				{
					"sampler":38,
					"target":{
						"node":10,
						"path":"scale"
					}
				},
				{
					"sampler":39,
					"target":{
						"node":12,
						"path":"translation"
					}
				},
				{
					"sampler":40,
					"target":{
						"node":12,
						"path":"rotation"
					}
				},
				{
					"sampler":41,
					"target":{
						"node":12,
						"path":"scale"
					}
				},
				{
					"sampler":42,
					"target":{
						"node":11,
						"path":"translation"
					}
				},
				{
					"sampler":43,
					"target":{
						"node":11,
						"path":"rotation"
					}
				},
				{
					"sampler":44,
					"target":{
						"node":11,
						"path":"scale"
					}
				},
				{
					"sampler":45,
					"target":{
						"node":14,
						"path":"translation"
					}
				},
				{
					"sampler":46,
					"target":{
						"node":14,
						"path":"rotation"
					}
				},
				{
					"sampler":47,
					"target":{
						"node":14,
						"path":"scale"
					}
				},
				{
					"sampler":48,
					"target":{
						"node":13,
						"path":"translation"
					}
				},
				{
					"sampler":49,
					"target":{
						"node":13,
						"path":"rotation"
					}
				},
				{
					"sampler":50,
					"target":{
						"node":13,
						"path":"scale"
					}
				},
				{
					"sampler":51,
					"target":{
						"node":16,
						"path":"translation"
					}
				},
				{
					"sampler":52,
					"target":{
						"node":16,
						"path":"rotation"
					}
				},
				{
					"sampler":53,
					"target":{
						"node":16,
						"path":"scale"
					}
				},
				{
					"sampler":54,
					"target":{
						"node":15,
						"path":"translation"
					}
				},
				{
					"sampler":55,
					"target":{
						"node":15,
						"path":"rotation"
					}
				},
				{
					"sampler":56,
					"target":{
						"node":15,
						"path":"scale"
					}
				},
				{
					"sampler":57,
					"target":{
						"node":18,
						"path":"translation"
					}
				},
				{
					"sampler":58,
					"target":{
						"node":18,
						"path":"rotation"
					}
				},
				{
					"sampler":59,
					"target":{
						"node":18,
						"path":"scale"
					}
				},
				{
					"sampler":60,
					"target":{
						"node":17,
						"path":"translation"
					}
				},
				{
					"sampler":61,
					"target":{
						"node":17,
						"path":"rotation"
					}
				},
				{
					"sampler":62,
					"target":{
						"node":17,
						"path":"scale"
					}
				},
				{
					"sampler":63,
					"target":{
						"node":23,
						"path":"translation"
					}
				},
				{
					"sampler":64,
					"target":{
						"node":23,
						"path":"rotation"
					}
				},
				{
					"sampler":65,
					"target":{
						"node":23,
						"path":"scale"
					}
				},
				{
					"sampler":66,
					"target":{
						"node":22,
						"path":"translation"
					}
				},
				{
					"sampler":67,
					"target":{
						"node":22,
						"path":"rotation"
					}
				},
				{
					"sampler":68,
					"target":{
						"node":22,
						"path":"scale"
					}
				},
				{
					"sampler":69,
					"target":{
						"node":20,
						"path":"translation"
					}
				},
				{
					"sampler":70,
					"target":{
						"node":20,
						"path":"rotation"
					}
				},
				{
					"sampler":71,
					"target":{
						"node":20,
						"path":"scale"
					}
				},
				{
					"sampler":72,
					"target":{
						"node":21,
						"path":"translation"
					}
				},
				{
					"sampler":73,
					"target":{
						"node":21,
						"path":"rotation"
					}
				},
				{
					"sampler":74,
					"target":{
						"node":21,
						"path":"scale"
					}
				},
				{
					"sampler":75,
					"target":{
						"node":27,
						"path":"translation"
					}
				},
				{
					"sampler":76,
					"target":{
						"node":27,
						"path":"rotation"
					}
				},
				{
					"sampler":77,
					"target":{
						"node":27,
						"path":"scale"
					}
				},
				{
					"sampler":78,
					"target":{
						"node":26,
						"path":"translation"
					}
				},
				{
					"sampler":79,
					"target":{
						"node":26,
						"path":"rotation"
					}
				},
				{
					"sampler":80,
					"target":{
						"node":26,
						"path":"scale"
					}
				},
				{
					"sampler":81,
					"target":{
						"node":24,
						"path":"translation"
					}
				},
				{
					"sampler":82,
					"target":{
						"node":24,
						"path":"rotation"
					}
				},
				{
					"sampler":83,
					"target":{
						"node":24,
						"path":"scale"
					}
				},
				{
					"sampler":84,
					"target":{
						"node":25,
						"path":"translation"
					}
				},
				{
					"sampler":85,
					"target":{
						"node":25,
						"path":"rotation"
					}
				},
				{
					"sampler":86,
					"target":{
						"node":25,
						"path":"scale"
					}
				}
			],
			"name":"Pigeon1",
			"samplers":[
				{
					"input":7,
					"interpolation":"STEP",
					"output":8
				},
				{
					"input":7,
					"interpolation":"STEP",
					"output":9
				},
				{
					"input":7,
					"interpolation":"STEP",
					"output":10
				},
				{
					"input":7,
					"interpolation":"STEP",
					"output":11
				},
				{
					"input":7,
					"interpolation":"STEP",
					"output":9
				},
				{
					"input":7,
					"interpolation":"STEP",
					"output":10
				},
				{
					"input":7,
					"interpolation":"STEP",
					"output":12
				},
				{
					"input":13,
					"interpolation":"LINEAR",
					"output":14
				},
				{
					"input":7,
					"interpolation":"STEP",
					"output":15
				},
				{
					"input":7,
					"interpolation":"STEP",
					"output":16
				},
				{
					"input":13,
					"interpolation":"LINEAR",
					"output":17
				},
				{
					"input":7,
					"interpolation":"STEP",
					"output":18
				},
				{
					"input":7,
					"interpolation":"STEP",
					"output":19
				},
				{
					"input":13,
					"interpolation":"LINEAR",
					"output":20
				},
				{
					"input":7,
					"interpolation":"STEP",
					"output":21
				},
				{
					"input":7,
					"interpolation":"STEP",
					"output":22
				},
				{
					"input":13,
					"interpolation":"LINEAR",
					"output":23
				},
				{
					"input":7,
					"interpolation":"STEP",
					"output":24
				},
				{
					"input":7,
					"interpolation":"STEP",
					"output":25
				},
				{
					"input":13,
					"interpolation":"LINEAR",
					"output":26
				},
				{
					"input":7,
					"interpolation":"STEP",
					"output":27
				},
				{
					"input":7,
					"interpolation":"STEP",
					"output":11
				},
				{
					"input":7,
					"interpolation":"STEP",
					"output":9
				},
				{
					"input":7,
					"interpolation":"STEP",
					"output":10
				},
				{
					"input":7,
					"interpolation":"STEP",
					"output":12
				},
				{
					"input":13,
					"interpolation":"LINEAR",
					"output":14
				},
				{
					"input":7,
					"interpolation":"STEP",
					"output":15
				},
				{
					"input":7,
					"interpolation":"STEP",
					"output":16
				},
				{
					"input":13,
					"interpolation":"LINEAR",
					"output":17
				},
				{
					"input":7,
					"interpolation":"STEP",
					"output":18
				},
				{
					"input":7,
					"interpolation":"STEP",
					"output":19
				},
				{
					"input":13,
					"interpolation":"LINEAR",
					"output":20
				},
				{
					"input":7,
					"interpolation":"STEP",
					"output":21
				},
				{
					"input":7,
					"interpolation":"STEP",
					"output":22
				},
				{
					"input":13,
					"interpolation":"LINEAR",
					"output":23
				},
				{
					"input":7,
					"interpolation":"STEP",
					"output":24
				},
				{
					"input":7,
					"interpolation":"STEP",
					"output":25
				},
				{
					"input":13,
					"interpolation":"LINEAR",
					"output":26
				},
				{
					"input":7,
					"interpolation":"STEP",
					"output":27
				},
				{
					"input":7,
					"interpolation":"STEP",
					"output":28
				},
				{
					"input":13,
					"interpolation":"LINEAR",
					"output":29
				},
				{
					"input":7,
					"interpolation":"STEP",
					"output":30
				},
				{
					"input":7,
					"interpolation":"STEP",
					"output":31
				},
				{
					"input":13,
					"interpolation":"LINEAR",
					"output":32
				},
				{
					"input":7,
					"interpolation":"STEP",
					"output":33
				},
				{
					"input":7,
					"interpolation":"STEP",
					"output":28
				},
				{
					"input":13,
					"interpolation":"LINEAR",
					"output":29
				},
				{
					"input":7,
					"interpolation":"STEP",
					"output":30
				},
				{
					"input":7,
					"interpolation":"STEP",
					"output":34
				},
				{
					"input":13,
					"interpolation":"LINEAR",
					"output":32
				},
				{
					"input":7,
					"interpolation":"STEP",
					"output":33
				},
				{
					"input":7,
					"interpolation":"STEP",
					"output":35
				},
				{
					"input":13,
					"interpolation":"LINEAR",
					"output":36
				},
				{
					"input":7,
					"interpolation":"STEP",
					"output":37
				},
				{
					"input":7,
					"interpolation":"STEP",
					"output":38
				},
				{
					"input":13,
					"interpolation":"LINEAR",
					"output":39
				},
				{
					"input":7,
					"interpolation":"STEP",
					"output":40
				},
				{
					"input":7,
					"interpolation":"STEP",
					"output":35
				},
				{
					"input":13,
					"interpolation":"LINEAR",
					"output":36
				},
				{
					"input":7,
					"interpolation":"STEP",
					"output":37
				},
				{
					"input":7,
					"interpolation":"STEP",
					"output":41
				},
				{
					"input":13,
					"interpolation":"LINEAR",
					"output":39
				},
				{
					"input":7,
					"interpolation":"STEP",
					"output":40
				},
				{
					"input":7,
					"interpolation":"STEP",
					"output":42
				},
				{
					"input":7,
					"interpolation":"STEP",
					"output":43
				},
				{
					"input":7,
					"interpolation":"STEP",
					"output":44
				},
				{
					"input":7,
					"interpolation":"STEP",
					"output":45
				},
				{
					"input":7,
					"interpolation":"STEP",
					"output":46
				},
				{
					"input":7,
					"interpolation":"STEP",
					"output":47
				},
				{
					"input":7,
					"interpolation":"STEP",
					"output":48
				},
				{
					"input":7,
					"interpolation":"STEP",
					"output":49
				},
				{
					"input":7,
					"interpolation":"STEP",
					"output":50
				},
				{
					"input":7,
					"interpolation":"STEP",
					"output":48
				},
				{
					"input":7,
					"interpolation":"STEP",
					"output":49
				},
				{
					"input":7,
					"interpolation":"STEP",
					"output":50
				},
				{
					"input":13,
					"interpolation":"LINEAR",
					"output":51
				},
				{
					"input":13,
					"interpolation":"LINEAR",
					"output":52
				},
				{
					"input":7,
					"interpolation":"STEP",
					"output":10
				},
				{
					"input":7,
					"interpolation":"STEP",
					"output":53
				},
				{
					"input":7,
					"interpolation":"STEP",
					"output":54
				},
				{
					"input":7,
					"interpolation":"STEP",
					"output":10
				},
				{
					"input":7,
					"interpolation":"STEP",
					"output":55
				},
				{
					"input":7,
					"interpolation":"STEP",
					"output":56
				},
				{
					"input":7,
					"interpolation":"STEP",
					"output":57
				},
				{
					"input":7,
					"interpolation":"STEP",
					"output":55
				},
				{
					"input":7,
					"interpolation":"STEP",
					"output":56
				},
				{
					"input":7,
					"interpolation":"STEP",
					"output":57
				}
			]
		}
	],
	"materials":[
		{
			"doubleSided":true,
			"emissiveFactor":[
				0.02500000037252903,
				0.02500000037252903,
				0.02500000037252903
			],
			"emissiveTexture":{
				"index":0
			},
			"name":"PigeonBaked",
			"pbrMetallicRoughness":{
				"baseColorTexture":{
					"index":1
				},
				"metallicFactor":0
			}
		}
	],
	"meshes":[
		{
			"name":"Pigeon_E",
			"primitives":[
				{
					"attributes":{
						"POSITION":0,
						"NORMAL":1,
						"TEXCOORD_0":2,
						"JOINTS_0":3,
						"WEIGHTS_0":4
					},
					"indices":5,
					"material":0
				}
			]
		}
	],
	"textures":[
		{
			"sampler":0,
			"source":0
		},
		{
			"sampler":0,
			"source":0
		}
	],
	"images":[
		{
			"mimeType":"image/png",
			"name":"pigeonBaked",
			"uri":"tex/pigeonBaked.png"
		}
	],
	"skins":[
		{
			"inverseBindMatrices":6,
			"joints":[
				6,
				5,
				4,
				1,
				0,
				2,
				3,
				28,
				19,
				8,
				7,
				9,
				10,
				12,
				11,
				14,
				13,
				16,
				15,
				18,
				17,
				23,
				22,
				20,
				21,
				27,
				26,
				24,
				25
			],
			"name":"Armature_Prop"
		}
	],
	"accessors":[
		{
			"bufferView":0,
			"componentType":5126,
			"count":526,
			"max":[
				0.21279360353946686,
				0.461625337600708,
				0.1685566008090973
			],
			"min":[
				-0.21279360353946686,
				-0.001297936774790287,
				-0.18020009994506836
			],
			"type":"VEC3"
		},
		{
			"bufferView":1,
			"componentType":5126,
			"count":526,
			"type":"VEC3"
		},
		{
			"bufferView":2,
			"componentType":5126,
			"count":526,
			"type":"VEC2"
		},
		{
			"bufferView":3,
			"componentType":5121,
			"count":526,
			"type":"VEC4"
		},
		{
			"bufferView":4,
			"componentType":5126,
			"count":526,
			"type":"VEC4"
		},
		{
			"bufferView":5,
			"componentType":5123,
			"count":2478,
			"type":"SCALAR"
		},
		{
			"bufferView":6,
			"componentType":5126,
			"count":29,
			"type":"MAT4"
		},
		{
			"bufferView":7,
			"componentType":5126,
			"count":2,
			"max":[
				2.4166666666666665
			],
			"min":[
				0
			],
			"type":"SCALAR"
		},
		{
			"bufferView":8,
			"componentType":5126,
			"count":2,
			"type":"VEC3"
		},
		{
			"bufferView":9,
			"componentType":5126,
			"count":2,
			"type":"VEC4"
		},
		{
			"bufferView":10,
			"componentType":5126,
			"count":2,
			"type":"VEC3"
		},
		{
			"bufferView":11,
			"componentType":5126,
			"count":2,
			"type":"VEC3"
		},
		{
			"bufferView":12,
			"componentType":5126,
			"count":2,
			"type":"VEC3"
		},
		{
			"bufferView":13,
			"componentType":5126,
			"count":146,
			"max":[
				2.4166666666666665
			],
			"min":[
				0
			],
			"type":"SCALAR"
		},
		{
			"bufferView":14,
			"componentType":5126,
			"count":146,
			"type":"VEC4"
		},
		{
			"bufferView":15,
			"componentType":5126,
			"count":2,
			"type":"VEC3"
		},
		{
			"bufferView":16,
			"componentType":5126,
			"count":2,
			"type":"VEC3"
		},
		{
			"bufferView":17,
			"componentType":5126,
			"count":146,
			"type":"VEC4"
		},
		{
			"bufferView":18,
			"componentType":5126,
			"count":2,
			"type":"VEC3"
		},
		{
			"bufferView":19,
			"componentType":5126,
			"count":2,
			"type":"VEC3"
		},
		{
			"bufferView":20,
			"componentType":5126,
			"count":146,
			"type":"VEC4"
		},
		{
			"bufferView":21,
			"componentType":5126,
			"count":2,
			"type":"VEC3"
		},
		{
			"bufferView":22,
			"componentType":5126,
			"count":2,
			"type":"VEC3"
		},
		{
			"bufferView":23,
			"componentType":5126,
			"count":146,
			"type":"VEC4"
		},
		{
			"bufferView":24,
			"componentType":5126,
			"count":2,
			"type":"VEC3"
		},
		{
			"bufferView":25,
			"componentType":5126,
			"count":2,
			"type":"VEC3"
		},
		{
			"bufferView":26,
			"componentType":5126,
			"count":146,
			"type":"VEC4"
		},
		{
			"bufferView":27,
			"componentType":5126,
			"count":2,
			"type":"VEC3"
		},
		{
			"bufferView":28,
			"componentType":5126,
			"count":2,
			"type":"VEC3"
		},
		{
			"bufferView":29,
			"componentType":5126,
			"count":146,
			"type":"VEC4"
		},
		{
			"bufferView":30,
			"componentType":5126,
			"count":2,
			"type":"VEC3"
		},
		{
			"bufferView":31,
			"componentType":5126,
			"count":2,
			"type":"VEC3"
		},
		{
			"bufferView":32,
			"componentType":5126,
			"count":146,
			"type":"VEC4"
		},
		{
			"bufferView":33,
			"componentType":5126,
			"count":2,
			"type":"VEC3"
		},
		{
			"bufferView":34,
			"componentType":5126,
			"count":2,
			"type":"VEC3"
		},
		{
			"bufferView":35,
			"componentType":5126,
			"count":2,
			"type":"VEC3"
		},
		{
			"bufferView":36,
			"componentType":5126,
			"count":146,
			"type":"VEC4"
		},
		{
			"bufferView":37,
			"componentType":5126,
			"count":2,
			"type":"VEC3"
		},
		{
			"bufferView":38,
			"componentType":5126,
			"count":2,
			"type":"VEC3"
		},
		{
			"bufferView":39,
			"componentType":5126,
			"count":146,
			"type":"VEC4"
		},
		{
			"bufferView":40,
			"componentType":5126,
			"count":2,
			"type":"VEC3"
		},
		{
			"bufferView":41,
			"componentType":5126,
			"count":2,
			"type":"VEC3"
		},
		{
			"bufferView":42,
			"componentType":5126,
			"count":2,
			"type":"VEC3"
		},
		{
			"bufferView":43,
			"componentType":5126,
			"count":2,
			"type":"VEC4"
		},
		{
			"bufferView":44,
			"componentType":5126,
			"count":2,
			"type":"VEC3"
		},
		{
			"bufferView":45,
			"componentType":5126,
			"count":2,
			"type":"VEC3"
		},
		{
			"bufferView":46,
			"componentType":5126,
			"count":2,
			"type":"VEC4"
		},
		{
			"bufferView":47,
			"componentType":5126,
			"count":2,
			"type":"VEC3"
		},
		{
			"bufferView":48,
			"componentType":5126,
			"count":2,
			"type":"VEC3"
		},
		{
			"bufferView":49,
			"componentType":5126,
			"count":2,
			"type":"VEC4"
		},
		{
			"bufferView":50,
			"componentType":5126,
			"count":2,
			"type":"VEC3"
		},
		{
			"bufferView":51,
			"componentType":5126,
			"count":146,
			"type":"VEC3"
		},
		{
			"bufferView":52,
			"componentType":5126,
			"count":146,
			"type":"VEC4"
		},
		{
			"bufferView":53,
			"componentType":5126,
			"count":2,
			"type":"VEC3"
		},
		{
			"bufferView":54,
			"componentType":5126,
			"count":2,
			"type":"VEC4"
		},
		{
			"bufferView":55,
			"componentType":5126,
			"count":2,
			"type":"VEC3"
		},
		{
			"bufferView":56,
			"componentType":5126,
			"count":2,
			"type":"VEC4"
		},
		{
			"bufferView":57,
			"componentType":5126,
			"count":2,
			"type":"VEC3"
		}
	],
	"bufferViews":[
		{
			"buffer":0,
			"byteLength":6312,
			"byteOffset":0,
			"target":34962
		},
		{
			"buffer":0,
			"byteLength":6312,
			"byteOffset":6312,
			"target":34962
		},
		{
			"buffer":0,
			"byteLength":4208,
			"byteOffset":12624,
			"target":34962
		},
		{
			"buffer":0,
			"byteLength":2104,
			"byteOffset":16832,
			"target":34962
		},
		{
			"buffer":0,
			"byteLength":8416,
			"byteOffset":18936,
			"target":34962
		},
		{
			"buffer":0,
			"byteLength":4956,
			"byteOffset":27352,
			"target":34963
		},
		{
			"buffer":0,
			"byteLength":1856,
			"byteOffset":32308
		},
		{
			"buffer":0,
			"byteLength":8,
			"byteOffset":34164
		},
		{
			"buffer":0,
			"byteLength":24,
			"byteOffset":34172
		},
		{
			"buffer":0,
			"byteLength":32,
			"byteOffset":34196
		},
		{
			"buffer":0,
			"byteLength":24,
			"byteOffset":34228
		},
		{
			"buffer":0,
			"byteLength":24,
			"byteOffset":34252
		},
		{
			"buffer":0,
			"byteLength":24,
			"byteOffset":34276
		},
		{
			"buffer":0,
			"byteLength":584,
			"byteOffset":34300
		},
		{
			"buffer":0,
			"byteLength":2336,
			"byteOffset":34884
		},
		{
			"buffer":0,
			"byteLength":24,
			"byteOffset":37220
		},
		{
			"buffer":0,
			"byteLength":24,
			"byteOffset":37244
		},
		{
			"buffer":0,
			"byteLength":2336,
			"byteOffset":37268
		},
		{
			"buffer":0,
			"byteLength":24,
			"byteOffset":39604
		},
		{
			"buffer":0,
			"byteLength":24,
			"byteOffset":39628
		},
		{
			"buffer":0,
			"byteLength":2336,
			"byteOffset":39652
		},
		{
			"buffer":0,
			"byteLength":24,
			"byteOffset":41988
		},
		{
			"buffer":0,
			"byteLength":24,
			"byteOffset":42012
		},
		{
			"buffer":0,
			"byteLength":2336,
			"byteOffset":42036
		},
		{
			"buffer":0,
			"byteLength":24,
			"byteOffset":44372
		},
		{
			"buffer":0,
			"byteLength":24,
			"byteOffset":44396
		},
		{
			"buffer":0,
			"byteLength":2336,
			"byteOffset":44420
		},
		{
			"buffer":0,
			"byteLength":24,
			"byteOffset":46756
		},
		{
			"buffer":0,
			"byteLength":24,
			"byteOffset":46780
		},
		{
			"buffer":0,
			"byteLength":2336,
			"byteOffset":46804
		},
		{
			"buffer":0,
			"byteLength":24,
			"byteOffset":49140
		},
		{
			"buffer":0,
			"byteLength":24,
			"byteOffset":49164
		},
		{
			"buffer":0,
			"byteLength":2336,
			"byteOffset":49188
		},
		{
			"buffer":0,
			"byteLength":24,
			"byteOffset":51524
		},
		{
			"buffer":0,
			"byteLength":24,
			"byteOffset":51548
		},
		{
			"buffer":0,
			"byteLength":24,
			"byteOffset":51572
		},
		{
			"buffer":0,
			"byteLength":2336,
			"byteOffset":51596
		},
		{
			"buffer":0,
			"byteLength":24,
			"byteOffset":53932
		},
		{
			"buffer":0,
			"byteLength":24,
			"byteOffset":53956
		},
		{
			"buffer":0,
			"byteLength":2336,
			"byteOffset":53980
		},
		{
			"buffer":0,
			"byteLength":24,
			"byteOffset":56316
		},
		{
			"buffer":0,
			"byteLength":24,
			"byteOffset":56340
		},
		{
			"buffer":0,
			"byteLength":24,
			"byteOffset":56364
		},
		{
			"buffer":0,
			"byteLength":32,
			"byteOffset":56388
		},
		{
			"buffer":0,
			"byteLength":24,
			"byteOffset":56420
		},
		{
			"buffer":0,
			"byteLength":24,
			"byteOffset":56444
		},
		{
			"buffer":0,
			"byteLength":32,
			"byteOffset":56468
		},
		{
			"buffer":0,
			"byteLength":24,
			"byteOffset":56500
		},
		{
			"buffer":0,
			"byteLength":24,
			"byteOffset":56524
		},
		{
			"buffer":0,
			"byteLength":32,
			"byteOffset":56548
		},
		{
			"buffer":0,
			"byteLength":24,
			"byteOffset":56580
		},
		{
			"buffer":0,
			"byteLength":1752,
			"byteOffset":56604
		},
		{
			"buffer":0,
			"byteLength":2336,
			"byteOffset":58356
		},
		{
			"buffer":0,
			"byteLength":24,
			"byteOffset":60692
		},
		{
			"buffer":0,
			"byteLength":32,
			"byteOffset":60716
		},
		{
			"buffer":0,
			"byteLength":24,
			"byteOffset":60748
		},
		{
			"buffer":0,
			"byteLength":32,
			"byteOffset":60772
		},
		{
			"buffer":0,
			"byteLength":24,
			"byteOffset":60804
		}
	],
	"samplers":[
		{
			"magFilter":9729,
			"minFilter":9987
		}
	],
	"buffers":[
		{
			"byteLength":60828,
			"uri":"pidgeon.01.bin"
		}
	]
}
