{
	"asset":{
		"generator":"Khronos glTF Blender I/O v4.5.51",
		"version":"2.0"
	},
	"scene":0,
	"scenes":[
		{
			"name":"Scene",
			"nodes":[
				0,
				1
			]
		}
	],
	"nodes":[
		{
			"mesh":0,
			"name":"podium"
		},
		{
			"mesh":1,
			"name":"podium_collider",
			"scale":[
				0.5,
				0.5,
				0.5
			],
			"translation":[
				0,
				0.20000000298023224,
				0
			]
		}
	],
	"animations":[
		{
			"channels":[
				{
					"sampler":0,
					"target":{
						"node":0,
						"path":"translation"
					}
				},
				{
					"sampler":1,
					"target":{
						"node":0,
						"path":"rotation"
					}
				},
				{
					"sampler":2,
					"target":{
						"node":0,
						"path":"scale"
					}
				}
			],
			"name":"podium",
			"samplers":[
				{
					"input":12,
					"interpolation":"STEP",
					"output":13
				},
				{
					"input":12,
					"interpolation":"STEP",
					"output":14
				},
				{
					"input":12,
					"interpolation":"STEP",
					"output":15
				}
			]
		},
		{
			"channels":[
				{
					"sampler":0,
					"target":{
						"node":1,
						"path":"translation"
					}
				},
				{
					"sampler":1,
					"target":{
						"node":1,
						"path":"rotation"
					}
				},
				{
					"sampler":2,
					"target":{
						"node":1,
						"path":"scale"
					}
				}
			],
			"name":"podium_collider",
			"samplers":[
				{
					"input":12,
					"interpolation":"STEP",
					"output":16
				},
				{
					"input":12,
					"interpolation":"STEP",
					"output":14
				},
				{
					"input":12,
					"interpolation":"STEP",
					"output":17
				}
			]
		}
	],
	"materials":[
		{
			"name":"Blue",
			"pbrMetallicRoughness":{
				"baseColorFactor":[
					0.019030626863241196,
					0.02850375697016716,
					0.043742381036281586,
					1
				],
				"metallicFactor":0,
				"roughnessFactor":0.5
			}
		},
		{
			"emissiveFactor":[
				0.1442844122648239,
				0.528644859790802,
				0.6861212849617004
			],
			"name":"Emissive",
			"pbrMetallicRoughness":{
				"baseColorFactor":[
					0.07686733454465866,
					0.30794209241867065,
					0.318715900182724,
					1
				],
				"metallicFactor":0,
				"roughnessFactor":0.5
			}
		}
	],
	"meshes":[
		{
			"name":"Cylinder",
			"primitives":[
				{
					"attributes":{
						"POSITION":0,
						"NORMAL":1,
						"TEXCOORD_0":2
					},
					"indices":3,
					"material":0
				},
				{
					"attributes":{
						"POSITION":4,
						"NORMAL":5,
						"TEXCOORD_0":6
					},
					"indices":7,
					"material":1
				}
			]
		},
		{
			"name":"Cylinder.001",
			"primitives":[
				{
					"attributes":{
						"POSITION":8,
						"NORMAL":9,
						"TEXCOORD_0":10
					},
					"indices":11
				}
			]
		}
	],
	"accessors":[
		{
			"bufferView":0,
			"componentType":5126,
			"count":704,
			"max":[
				0.625,
				-9.313225746154785e-09,
				0.625
			],
			"min":[
				-0.625,
				-0.2499999850988388,
				-0.625
			],
			"type":"VEC3"
		},
		{
			"bufferView":1,
			"componentType":5126,
			"count":704,
			"type":"VEC3"
		},
		{
			"bufferView":2,
			"componentType":5126,
			"count":704,
			"type":"VEC2"
		},
		{
			"bufferView":3,
			"componentType":5123,
			"count":1434,
			"type":"SCALAR"
		},
		{
			"bufferView":4,
			"componentType":5126,
			"count":128,
			"max":[
				0.4993951618671417,
				-0.0312500074505806,
				0.4993951618671417
			],
			"min":[
				-0.4993951618671417,
				-0.0312500074505806,
				-0.4993951618671417
			],
			"type":"VEC3"
		},
		{
			"bufferView":5,
			"componentType":5126,
			"count":128,
			"type":"VEC3"
		},
		{
			"bufferView":6,
			"componentType":5126,
			"count":128,
			"type":"VEC2"
		},
		{
			"bufferView":7,
			"componentType":5123,
			"count":192,
			"type":"SCALAR"
		},
		{
			"bufferView":8,
			"componentType":5126,
			"count":192,
			"max":[
				1,
				3.1999998092651367,
				1
			],
			"min":[
				-1,
				-0.3999999761581421,
				-1
			],
			"type":"VEC3"
		},
		{
			"bufferView":9,
			"componentType":5126,
			"count":192,
			"type":"VEC3"
		},
		{
			"bufferView":10,
			"componentType":5126,
			"count":192,
			"type":"VEC2"
		},
		{
			"bufferView":11,
			"componentType":5123,
			"count":372,
			"type":"SCALAR"
		},
		{
			"bufferView":12,
			"componentType":5126,
			"count":2,
			"max":[
				5
			],
			"min":[
				0.016666666666666666
			],
			"type":"SCALAR"
		},
		{
			"bufferView":13,
			"componentType":5126,
			"count":2,
			"type":"VEC3"
		},
		{
			"bufferView":14,
			"componentType":5126,
			"count":2,
			"type":"VEC4"
		},
		{
			"bufferView":15,
			"componentType":5126,
			"count":2,
			"type":"VEC3"
		},
		{
			"bufferView":16,
			"componentType":5126,
			"count":2,
			"type":"VEC3"
		},
		{
			"bufferView":17,
			"componentType":5126,
			"count":2,
			"type":"VEC3"
		}
	],
	"bufferViews":[
		{
			"buffer":0,
			"byteLength":8448,
			"byteOffset":0,
			"target":34962
		},
		{
			"buffer":0,
			"byteLength":8448,
			"byteOffset":8448,
			"target":34962
		},
		{
			"buffer":0,
			"byteLength":5632,
			"byteOffset":16896,
			"target":34962
		},
		{
			"buffer":0,
			"byteLength":2868,
			"byteOffset":22528,
			"target":34963
		},
		{
			"buffer":0,
			"byteLength":1536,
			"byteOffset":25396,
			"target":34962
		},
		{
			"buffer":0,
			"byteLength":1536,
			"byteOffset":26932,
			"target":34962
		},
		{
			"buffer":0,
			"byteLength":1024,
			"byteOffset":28468,
			"target":34962
		},
		{
			"buffer":0,
			"byteLength":384,
			"byteOffset":29492,
			"target":34963
		},
		{
			"buffer":0,
			"byteLength":2304,
			"byteOffset":29876,
			"target":34962
		},
		{
			"buffer":0,
			"byteLength":2304,
			"byteOffset":32180,
			"target":34962
		},
		{
			"buffer":0,
			"byteLength":1536,
			"byteOffset":34484,
			"target":34962
		},
		{
			"buffer":0,
			"byteLength":744,
			"byteOffset":36020,
			"target":34963
		},
		{
			"buffer":0,
			"byteLength":8,
			"byteOffset":36764
		},
		{
			"buffer":0,
			"byteLength":24,
			"byteOffset":36772
		},
		{
			"buffer":0,
			"byteLength":32,
			"byteOffset":36796
		},
		{
			"buffer":0,
			"byteLength":24,
			"byteOffset":36828
		},
		{
			"buffer":0,
			"byteLength":24,
			"byteOffset":36852
		},
		{
			"buffer":0,
			"byteLength":24,
			"byteOffset":36876
		}
	],
	"buffers":[
		{
			"byteLength":36900,
			"uri":"podium.bin"
		}
	]
}
