{
	"asset":{
		"generator":"Khronos glTF Blender I/O v4.5.49",
		"version":"2.0"
	},
	"scene":0,
	"scenes":[
		{
			"name":"Scene",
			"nodes":[
				0
			]
		}
	],
	"nodes":[
		{
			"mesh":0,
			"name":"podium.001"
		}
	],
	"materials":[
		{
			"name":"Blue",
			"pbrMetallicRoughness":{
				"baseColorFactor":[
					0.019030626863241196,
					0.02850375697016716,
					0.043742381036281586,
					1
				],
				"metallicFactor":0,
				"roughnessFactor":0.5
			}
		},
		{
			"emissiveFactor":[
				0.1442844122648239,
				0.528644859790802,
				0.6861212849617004
			],
			"name":"Emissive",
			"pbrMetallicRoughness":{
				"baseColorFactor":[
					0.07686733454465866,
					0.30794209241867065,
					0.318715900182724,
					1
				],
				"metallicFactor":0,
				"roughnessFactor":0.5
			}
		}
	],
	"meshes":[
		{
			"name":"Cylinder.004",
			"primitives":[
				{
					"attributes":{
						"POSITION":0,
						"NORMAL":1,
						"TEXCOORD_0":2
					},
					"indices":3,
					"material":0
				},
				{
					"attributes":{
						"POSITION":4,
						"NORMAL":5,
						"TEXCOORD_0":6
					},
					"indices":7,
					"material":1
				}
			]
		}
	],
	"accessors":[
		{
			"bufferView":0,
			"componentType":5126,
			"count":704,
			"max":[
				0.625,
				-9.313225746154785e-09,
				0.625
			],
			"min":[
				-0.625,
				-0.2499999850988388,
				-0.625
			],
			"type":"VEC3"
		},
		{
			"bufferView":1,
			"componentType":5126,
			"count":704,
			"type":"VEC3"
		},
		{
			"bufferView":2,
			"componentType":5126,
			"count":704,
			"type":"VEC2"
		},
		{
			"bufferView":3,
			"componentType":5123,
			"count":1434,
			"type":"SCALAR"
		},
		{
			"bufferView":4,
			"componentType":5126,
			"count":128,
			"max":[
				0.4993951618671417,
				-0.0312500074505806,
				0.4993951618671417
			],
			"min":[
				-0.4993951618671417,
				-0.0312500074505806,
				-0.4993951618671417
			],
			"type":"VEC3"
		},
		{
			"bufferView":5,
			"componentType":5126,
			"count":128,
			"type":"VEC3"
		},
		{
			"bufferView":6,
			"componentType":5126,
			"count":128,
			"type":"VEC2"
		},
		{
			"bufferView":7,
			"componentType":5123,
			"count":192,
			"type":"SCALAR"
		}
	],
	"bufferViews":[
		{
			"buffer":0,
			"byteLength":8448,
			"byteOffset":0,
			"target":34962
		},
		{
			"buffer":0,
			"byteLength":8448,
			"byteOffset":8448,
			"target":34962
		},
		{
			"buffer":0,
			"byteLength":5632,
			"byteOffset":16896,
			"target":34962
		},
		{
			"buffer":0,
			"byteLength":2868,
			"byteOffset":22528,
			"target":34963
		},
		{
			"buffer":0,
			"byteLength":1536,
			"byteOffset":25396,
			"target":34962
		},
		{
			"buffer":0,
			"byteLength":1536,
			"byteOffset":26932,
			"target":34962
		},
		{
			"buffer":0,
			"byteLength":1024,
			"byteOffset":28468,
			"target":34962
		},
		{
			"buffer":0,
			"byteLength":384,
			"byteOffset":29492,
			"target":34963
		}
	],
	"buffers":[
		{
			"byteLength":29876,
			"uri":"podiumnocollider.bin"
		}
	]
}
