{
	"asset":{
		"generator":"Khronos glTF Blender I/O v4.5.49",
		"version":"2.0"
	},
	"scene":0,
	"scenes":[
		{
			"name":"Scene",
			"nodes":[
				0
			]
		}
	],
	"nodes":[
		{
			"mesh":0,
			"name":"ColorPickerHairText.002",
			"rotation":[
				0.7071068286895752,
				0,
				0,
				0.7071068286895752
			],
			"scale":[
				1.0822618007659912,
				1.0822618007659912,
				1.0822618007659912
			],
			"translation":[
				0,
				1.1707789897918701,
				0.002076944103464484
			]
		}
	],
	"materials":[
		{
			"doubleSided":true,
			"emissiveFactor":[
				0.400534987449646,
				0.3740459978580475,
				0.30081748962402344
			],
			"name":"Neon-0.25",
			"pbrMetallicRoughness":{
				"baseColorFactor":[
					0.801069974899292,
					0.748091995716095,
					0.6016349792480469,
					1
				],
				"metallicFactor":0,
				"roughnessFactor":0.5
			}
		}
	],
	"meshes":[
		{
			"name":"Text.010",
			"primitives":[
				{
					"attributes":{
						"POSITION":0,
						"NORMAL":1,
						"TEXCOORD_0":2
					},
					"indices":3,
					"material":0
				}
			]
		}
	],
	"accessors":[
		{
			"bufferView":0,
			"componentType":5126,
			"count":379,
			"max":[
				0.48588117957115173,
				0,
				0.09978173673152924
			],
			"min":[
				-0.4827316999435425,
				-9.85231618511051e-11,
				-0.12411874532699585
			],
			"type":"VEC3"
		},
		{
			"bufferView":1,
			"componentType":5126,
			"count":379,
			"type":"VEC3"
		},
		{
			"bufferView":2,
			"componentType":5126,
			"count":379,
			"type":"VEC2"
		},
		{
			"bufferView":3,
			"componentType":5123,
			"count":1095,
			"type":"SCALAR"
		}
	],
	"bufferViews":[
		{
			"buffer":0,
			"byteLength":4548,
			"byteOffset":0,
			"target":34962
		},
		{
			"buffer":0,
			"byteLength":4548,
			"byteOffset":4548,
			"target":34962
		},
		{
			"buffer":0,
			"byteLength":3032,
			"byteOffset":9096,
			"target":34962
		},
		{
			"buffer":0,
			"byteLength":2190,
			"byteOffset":12128,
			"target":34963
		}
	],
	"buffers":[
		{
			"byteLength":14320,
			"uri":"shopZoneColorPicker.TextHair.bin"
		}
	]
}
