{
	"asset":{
		"generator":"Khronos glTF Blender I/O v4.5.49",
		"version":"2.0"
	},
	"scene":0,
	"scenes":[
		{
			"name":"Scene",
			"nodes":[
				1
			]
		}
	],
	"nodes":[
		{
			"name":"mirror",
			"translation":[
				-1.1999999284744263,
				0,
				0.11999998986721039
			]
		},
		{
			"children":[
				0
			],
			"mesh":0,
			"name":"handle"
		}
	],
	"materials":[
		{
			"doubleSided":true,
			"name":"MarblePure",
			"pbrMetallicRoughness":{
				"baseColorTexture":{
					"index":0
				},
				"metallicFactor":0,
				"roughnessFactor":0.6000000238418579
			}
		},
		{
			"doubleSided":true,
			"emissiveFactor":[
				0.400534987449646,
				0.3740459978580475,
				0.30081748962402344
			],
			"name":"Neon-0.25",
			"pbrMetallicRoughness":{
				"baseColorFactor":[
					0.801069974899292,
					0.748091995716095,
					0.6016349792480469,
					1
				],
				"metallicFactor":0,
				"roughnessFactor":0.5
			}
		},
		{
			"doubleSided":true,
			"name":"Gold",
			"pbrMetallicRoughness":{
				"baseColorFactor":[
					0.8000858426094055,
					0.5408986806869507,
					0.2867134213447571,
					1
				],
				"roughnessFactor":0.16228070855140686
			}
		}
	],
	"meshes":[
		{
			"name":"Cylinder.007",
			"primitives":[
				{
					"attributes":{
						"POSITION":0,
						"NORMAL":1,
						"TEXCOORD_0":2
					},
					"indices":3,
					"material":0
				},
				{
					"attributes":{
						"POSITION":4,
						"NORMAL":5,
						"TEXCOORD_0":6
					},
					"indices":7,
					"material":1
				},
				{
					"attributes":{
						"POSITION":8,
						"NORMAL":9,
						"TEXCOORD_0":10
					},
					"indices":11,
					"material":2
				}
			]
		}
	],
	"textures":[
		{
			"sampler":0,
			"source":0
		}
	],
	"images":[
		{
			"mimeType":"image/png",
			"name":"MarbleFloor_2D_View",
			"uri":"tex/MarbleFloor_2D_View.png"
		}
	],
	"accessors":[
		{
			"bufferView":0,
			"componentType":5126,
			"count":224,
			"max":[
				-1.1430689096450806,
				0.23970967531204224,
				0.11999998986721039
			],
			"min":[
				-1.256930947303772,
				-0.23970967531204224,
				0.08810140192508698
			],
			"type":"VEC3"
		},
		{
			"bufferView":1,
			"componentType":5126,
			"count":224,
			"type":"VEC3"
		},
		{
			"bufferView":2,
			"componentType":5126,
			"count":224,
			"type":"VEC2"
		},
		{
			"bufferView":3,
			"componentType":5123,
			"count":624,
			"type":"SCALAR"
		},
		{
			"bufferView":4,
			"componentType":5126,
			"count":53,
			"max":[
				-1.161909580230713,
				0.22072593867778778,
				0.1262499988079071
			],
			"min":[
				-1.2380902767181396,
				-0.22072593867778778,
				0.1262499988079071
			],
			"type":"VEC3"
		},
		{
			"bufferView":5,
			"componentType":5126,
			"count":53,
			"type":"VEC3"
		},
		{
			"bufferView":6,
			"componentType":5126,
			"count":53,
			"type":"VEC2"
		},
		{
			"bufferView":7,
			"componentType":5123,
			"count":156,
			"type":"SCALAR"
		},
		{
			"bufferView":8,
			"componentType":5126,
			"count":216,
			"max":[
				-1.1493490934371948,
				0.23338176310062408,
				0.1262499988079071
			],
			"min":[
				-1.2506507635116577,
				-0.23338176310062408,
				0.11999998986721039
			],
			"type":"VEC3"
		},
		{
			"bufferView":9,
			"componentType":5126,
			"count":216,
			"type":"VEC3"
		},
		{
			"bufferView":10,
			"componentType":5126,
			"count":216,
			"type":"VEC2"
		},
		{
			"bufferView":11,
			"componentType":5123,
			"count":624,
			"type":"SCALAR"
		}
	],
	"bufferViews":[
		{
			"buffer":0,
			"byteLength":2688,
			"byteOffset":0,
			"target":34962
		},
		{
			"buffer":0,
			"byteLength":2688,
			"byteOffset":2688,
			"target":34962
		},
		{
			"buffer":0,
			"byteLength":1792,
			"byteOffset":5376,
			"target":34962
		},
		{
			"buffer":0,
			"byteLength":1248,
			"byteOffset":7168,
			"target":34963
		},
		{
			"buffer":0,
			"byteLength":636,
			"byteOffset":8416,
			"target":34962
		},
		{
			"buffer":0,
			"byteLength":636,
			"byteOffset":9052,
			"target":34962
		},
		{
			"buffer":0,
			"byteLength":424,
			"byteOffset":9688,
			"target":34962
		},
		{
			"buffer":0,
			"byteLength":312,
			"byteOffset":10112,
			"target":34963
		},
		{
			"buffer":0,
			"byteLength":2592,
			"byteOffset":10424,
			"target":34962
		},
		{
			"buffer":0,
			"byteLength":2592,
			"byteOffset":13016,
			"target":34962
		},
		{
			"buffer":0,
			"byteLength":1728,
			"byteOffset":15608,
			"target":34962
		},
		{
			"buffer":0,
			"byteLength":1248,
			"byteOffset":17336,
			"target":34963
		}
	],
	"samplers":[
		{
			"magFilter":9729,
			"minFilter":9987
		}
	],
	"buffers":[
		{
			"byteLength":18584,
			"uri":"shopZoneColorPicker.ValueHandle.bin"
		}
	]
}
