{
	"asset":{
		"generator":"Khronos glTF Blender I/O v4.5.49",
		"version":"2.0"
	},
	"scene":0,
	"scenes":[
		{
			"name":"Scene",
			"nodes":[
				0
			]
		}
	],
	"nodes":[
		{
			"mesh":0,
			"name":"Text.001",
			"rotation":[
				0.7071068286895752,
				0,
				0,
				0.7071067690849304
			],
			"scale":[
				0.3858566880226135,
				0.3858566880226135,
				0.3858566880226135
			],
			"translation":[
				0,
				1.1707789897918701,
				0.002076944103464484
			]
		}
	],
	"materials":[
		{
			"doubleSided":true,
			"emissiveFactor":[
				0.400534987449646,
				0.3740459978580475,
				0.30081748962402344
			],
			"name":"Neon-0.25",
			"pbrMetallicRoughness":{
				"baseColorFactor":[
					0.801069974899292,
					0.748091995716095,
					0.6016349792480469,
					1
				],
				"metallicFactor":0,
				"roughnessFactor":0.5
			}
		}
	],
	"meshes":[
		{
			"name":"Text.012",
			"primitives":[
				{
					"attributes":{
						"POSITION":0,
						"NORMAL":1,
						"TEXCOORD_0":2
					},
					"indices":3,
					"material":0
				}
			]
		}
	],
	"accessors":[
		{
			"bufferView":0,
			"componentType":5126,
			"count":404,
			"max":[
				1.4396194219589233,
				0,
				0.279156357049942
			],
			"min":[
				-1.4222497940063477,
				0,
				-0.35856080055236816
			],
			"type":"VEC3"
		},
		{
			"bufferView":1,
			"componentType":5126,
			"count":404,
			"type":"VEC3"
		},
		{
			"bufferView":2,
			"componentType":5126,
			"count":404,
			"type":"VEC2"
		},
		{
			"bufferView":3,
			"componentType":5123,
			"count":1164,
			"type":"SCALAR"
		}
	],
	"bufferViews":[
		{
			"buffer":0,
			"byteLength":4848,
			"byteOffset":0,
			"target":34962
		},
		{
			"buffer":0,
			"byteLength":4848,
			"byteOffset":4848,
			"target":34962
		},
		{
			"buffer":0,
			"byteLength":3232,
			"byteOffset":9696,
			"target":34962
		},
		{
			"buffer":0,
			"byteLength":2328,
			"byteOffset":12928,
			"target":34963
		}
	],
	"buffers":[
		{
			"byteLength":15256,
			"uri":"shopZoneColorPicker.TextSkin.bin"
		}
	]
}
