{
	"asset":{
		"generator":"Khronos glTF Blender I/O v4.5.49",
		"version":"2.0"
	},
	"scene":0,
	"scenes":[
		{
			"name":"Scene",
			"nodes":[
				0,
				1
			]
		}
	],
	"nodes":[
		{
			"mesh":0,
			"name":"shopZone.sign.001"
		},
		{
			"mesh":1,
			"name":"value.tint"
		}
	],
	"materials":[
		{
			"doubleSided":true,
			"name":"MarblePure",
			"pbrMetallicRoughness":{
				"baseColorTexture":{
					"index":0
				},
				"metallicFactor":0,
				"roughnessFactor":0.6000000238418579
			}
		},
		{
			"doubleSided":true,
			"name":"Gold",
			"pbrMetallicRoughness":{
				"baseColorFactor":[
					0.8000858426094055,
					0.5408986806869507,
					0.2867134213447571,
					1
				],
				"roughnessFactor":0.16228070855140686
			}
		},
		{
			"doubleSided":true,
			"name":"BlackWhiteGradient",
			"pbrMetallicRoughness":{
				"baseColorTexture":{
					"index":1
				},
				"metallicFactor":0
			}
		}
	],
	"meshes":[
		{
			"name":"Cylinder.006",
			"primitives":[
				{
					"attributes":{
						"POSITION":0,
						"NORMAL":1,
						"TEXCOORD_0":2
					},
					"indices":3,
					"material":0
				},
				{
					"attributes":{
						"POSITION":4,
						"NORMAL":5,
						"TEXCOORD_0":6
					},
					"indices":7,
					"material":1
				}
			]
		},
		{
			"name":"Cylinder.013",
			"primitives":[
				{
					"attributes":{
						"POSITION":8,
						"NORMAL":9,
						"TEXCOORD_0":10
					},
					"indices":11,
					"material":2
				}
			]
		}
	],
	"textures":[
		{
			"sampler":0,
			"source":0
		},
		{
			"sampler":0,
			"source":1
		}
	],
	"images":[
		{
			"mimeType":"image/png",
			"name":"MarbleFloor_2D_View",
			"uri":"tex/MarbleFloor_2D_View.png"
		},
		{
			"mimeType":"image/png",
			"name":"tex-color-value",
			"uri":"tex/tex-color-value.png"
		}
	],
	"accessors":[
		{
			"bufferView":0,
			"componentType":5126,
			"count":142,
			"max":[
				1.5299997329711914,
				0.32999998331069946,
				0.09000001102685928
			],
			"min":[
				-1.5299997329711914,
				-0.32999998331069946,
				-0.07500001043081284
			],
			"type":"VEC3"
		},
		{
			"bufferView":1,
			"componentType":5126,
			"count":142,
			"type":"VEC3"
		},
		{
			"bufferView":2,
			"componentType":5126,
			"count":142,
			"type":"VEC2"
		},
		{
			"bufferView":3,
			"componentType":5123,
			"count":318,
			"type":"SCALAR"
		},
		{
			"bufferView":4,
			"componentType":5126,
			"count":222,
			"max":[
				1.5299997329711914,
				0.32999998331069946,
				0.12000000476837158
			],
			"min":[
				-1.5299997329711914,
				-0.32999998331069946,
				0.07499998062849045
			],
			"type":"VEC3"
		},
		{
			"bufferView":5,
			"componentType":5126,
			"count":222,
			"type":"VEC3"
		},
		{
			"bufferView":6,
			"componentType":5126,
			"count":222,
			"type":"VEC2"
		},
		{
			"bufferView":7,
			"componentType":5123,
			"count":648,
			"type":"SCALAR"
		},
		{
			"bufferView":8,
			"componentType":5126,
			"count":8,
			"max":[
				1.469854712486267,
				0.2562825679779053,
				0.07499999552965164
			],
			"min":[
				-1.469854712486267,
				-0.2562825679779053,
				0.07499998062849045
			],
			"type":"VEC3"
		},
		{
			"bufferView":9,
			"componentType":5126,
			"count":8,
			"type":"VEC3"
		},
		{
			"bufferView":10,
			"componentType":5126,
			"count":8,
			"type":"VEC2"
		},
		{
			"bufferView":11,
			"componentType":5123,
			"count":18,
			"type":"SCALAR"
		}
	],
	"bufferViews":[
		{
			"buffer":0,
			"byteLength":1704,
			"byteOffset":0,
			"target":34962
		},
		{
			"buffer":0,
			"byteLength":1704,
			"byteOffset":1704,
			"target":34962
		},
		{
			"buffer":0,
			"byteLength":1136,
			"byteOffset":3408,
			"target":34962
		},
		{
			"buffer":0,
			"byteLength":636,
			"byteOffset":4544,
			"target":34963
		},
		{
			"buffer":0,
			"byteLength":2664,
			"byteOffset":5180,
			"target":34962
		},
		{
			"buffer":0,
			"byteLength":2664,
			"byteOffset":7844,
			"target":34962
		},
		{
			"buffer":0,
			"byteLength":1776,
			"byteOffset":10508,
			"target":34962
		},
		{
			"buffer":0,
			"byteLength":1296,
			"byteOffset":12284,
			"target":34963
		},
		{
			"buffer":0,
			"byteLength":96,
			"byteOffset":13580,
			"target":34962
		},
		{
			"buffer":0,
			"byteLength":96,
			"byteOffset":13676,
			"target":34962
		},
		{
			"buffer":0,
			"byteLength":64,
			"byteOffset":13772,
			"target":34962
		},
		{
			"buffer":0,
			"byteLength":36,
			"byteOffset":13836,
			"target":34963
		}
	],
	"samplers":[
		{
			"magFilter":9729,
			"minFilter":9987
		}
	],
	"buffers":[
		{
			"byteLength":13872,
			"uri":"shopZoneColorPicker.Value.bin"
		}
	]
}
