{
	"asset":{
		"generator":"Khronos glTF Blender I/O v4.5.49",
		"version":"2.0"
	},
	"scene":0,
	"scenes":[
		{
			"name":"Scene",
			"nodes":[
				0
			]
		}
	],
	"nodes":[
		{
			"mesh":0,
			"name":"Text.upperBody",
			"rotation":[
				0.7071068286895752,
				0,
				0,
				0.7071068286895752
			],
			"translation":[
				0,
				0.02071475051343441,
				0.09749999642372131
			]
		}
	],
	"materials":[
		{
			"doubleSided":true,
			"emissiveFactor":[
				0.400534987449646,
				0.3740459978580475,
				0.30081748962402344
			],
			"name":"Neon-0.25",
			"pbrMetallicRoughness":{
				"baseColorFactor":[
					0.801069974899292,
					0.748091995716095,
					0.6016349792480469,
					1
				],
				"metallicFactor":0,
				"roughnessFactor":0.5
			}
		}
	],
	"meshes":[
		{
			"name":"Text.002",
			"primitives":[
				{
					"attributes":{
						"POSITION":0,
						"NORMAL":1,
						"TEXCOORD_0":2
					},
					"indices":3,
					"material":0
				}
			]
		}
	],
	"accessors":[
		{
			"bufferView":0,
			"componentType":5126,
			"count":491,
			"max":[
				0.8163231611251831,
				0,
				0.25423356890678406
			],
			"min":[
				-0.8226317167282104,
				0,
				-0.18189580738544464
			],
			"type":"VEC3"
		},
		{
			"bufferView":1,
			"componentType":5126,
			"count":491,
			"type":"VEC3"
		},
		{
			"bufferView":2,
			"componentType":5126,
			"count":491,
			"type":"VEC2"
		},
		{
			"bufferView":3,
			"componentType":5123,
			"count":1461,
			"type":"SCALAR"
		}
	],
	"bufferViews":[
		{
			"buffer":0,
			"byteLength":5892,
			"byteOffset":0,
			"target":34962
		},
		{
			"buffer":0,
			"byteLength":5892,
			"byteOffset":5892,
			"target":34962
		},
		{
			"buffer":0,
			"byteLength":3928,
			"byteOffset":11784,
			"target":34962
		},
		{
			"buffer":0,
			"byteLength":2922,
			"byteOffset":15712,
			"target":34963
		}
	],
	"buffers":[
		{
			"byteLength":18636,
			"uri":"shopZone.upperBody.bin"
		}
	]
}
