{
	"asset":{
		"generator":"Khronos glTF Blender I/O v4.5.49",
		"version":"2.0"
	},
	"scene":0,
	"scenes":[
		{
			"name":"Scene",
			"nodes":[
				0,
				1,
				2,
				3
			]
		}
	],
	"nodes":[
		{
			"mesh":0,
			"name":"ColorPickerHair"
		},
		{
			"mesh":1,
			"name":"ColorPickerHair.Wheel"
		},
		{
			"mesh":2,
			"name":"ColorPickerHairText",
			"rotation":[
				0.7071068286895752,
				0,
				0,
				0.7071068286895752
			],
			"translation":[
				0,
				-1.0004431009292603,
				0.0017307866364717484
			]
		},
		{
			"mesh":3,
			"name":"ColorPickerHair._collider_sphere",
			"scale":[
				0.5357146263122559,
				0.5357142686843872,
				0.5357145071029663
			]
		}
	],
	"materials":[
		{
			"doubleSided":true,
			"name":"MarblePure",
			"pbrMetallicRoughness":{
				"baseColorTexture":{
					"index":0
				},
				"metallicFactor":0,
				"roughnessFactor":0.6000000238418579
			}
		},
		{
			"doubleSided":true,
			"name":"Gold",
			"pbrMetallicRoughness":{
				"baseColorFactor":[
					0.8000858426094055,
					0.5408986806869507,
					0.2867134213447571,
					1
				],
				"roughnessFactor":0.16228070855140686
			}
		},
		{
			"doubleSided":true,
			"emissiveFactor":[
				0.10000000149011612,
				0.10000000149011612,
				0.10000000149011612
			],
			"emissiveTexture":{
				"index":1
			},
			"name":"MarblePure",
			"pbrMetallicRoughness":{
				"baseColorTexture":{
					"index":2
				},
				"metallicFactor":0,
				"roughnessFactor":0
			}
		},
		{
			"doubleSided":true,
			"emissiveFactor":[
				0.400534987449646,
				0.3740459978580475,
				0.30081748962402344
			],
			"name":"Neon-0.25",
			"pbrMetallicRoughness":{
				"baseColorFactor":[
					0.801069974899292,
					0.748091995716095,
					0.6016349792480469,
					1
				],
				"metallicFactor":0,
				"roughnessFactor":0.5
			}
		}
	],
	"meshes":[
		{
			"name":"Cylinder.003",
			"primitives":[
				{
					"attributes":{
						"POSITION":0,
						"NORMAL":1,
						"TEXCOORD_0":2
					},
					"indices":3,
					"material":0
				},
				{
					"attributes":{
						"POSITION":4,
						"NORMAL":5,
						"TEXCOORD_0":6
					},
					"indices":7,
					"material":1
				}
			]
		},
		{
			"name":"Cylinder.005",
			"primitives":[
				{
					"attributes":{
						"POSITION":8,
						"NORMAL":9,
						"TEXCOORD_0":10
					},
					"indices":11,
					"material":2
				}
			]
		},
		{
			"name":"Text.004",
			"primitives":[
				{
					"attributes":{
						"POSITION":12,
						"NORMAL":13,
						"TEXCOORD_0":14
					},
					"indices":15,
					"material":3
				}
			]
		},
		{
			"name":"Sphere.002",
			"primitives":[
				{
					"attributes":{
						"POSITION":16,
						"NORMAL":17,
						"TEXCOORD_0":18
					},
					"indices":19
				}
			]
		}
	],
	"textures":[
		{
			"sampler":0,
			"source":0
		},
		{
			"sampler":0,
			"source":1
		},
		{
			"sampler":0,
			"source":1
		}
	],
	"images":[
		{
			"mimeType":"image/png",
			"name":"MarbleFloor_2D_View",
			"uri":"tex/MarbleFloor_2D_View.png"
		},
		{
			"mimeType":"image/png",
			"name":"color-wheel",
			"uri":"tex/color-wheel.png"
		}
	],
	"accessors":[
		{
			"bufferView":0,
			"componentType":5126,
			"count":326,
			"max":[
				0.8314109444618225,
				0.8087223172187805,
				0.008151097223162651
			],
			"min":[
				-0.8314109444618225,
				-1.167370080947876,
				-0.08151089400053024
			],
			"type":"VEC3"
		},
		{
			"bufferView":1,
			"componentType":5126,
			"count":326,
			"type":"VEC3"
		},
		{
			"bufferView":2,
			"componentType":5126,
			"count":326,
			"type":"VEC2"
		},
		{
			"bufferView":3,
			"componentType":5123,
			"count":822,
			"type":"SCALAR"
		},
		{
			"bufferView":4,
			"componentType":5126,
			"count":570,
			"max":[
				0.8314109444618225,
				0.8087223172187805,
				0.02445327304303646
			],
			"min":[
				-0.8314109444618225,
				-1.167370080947876,
				-8.09737965568047e-09
			],
			"type":"VEC3"
		},
		{
			"bufferView":5,
			"componentType":5126,
			"count":570,
			"type":"VEC3"
		},
		{
			"bufferView":6,
			"componentType":5126,
			"count":570,
			"type":"VEC2"
		},
		{
			"bufferView":7,
			"componentType":5123,
			"count":1638,
			"type":"SCALAR"
		},
		{
			"bufferView":8,
			"componentType":5126,
			"count":34,
			"max":[
				0.7596620917320251,
				0.7596620321273804,
				0
			],
			"min":[
				-0.7596620917320251,
				-0.7596619725227356,
				0
			],
			"type":"VEC3"
		},
		{
			"bufferView":9,
			"componentType":5126,
			"count":34,
			"type":"VEC3"
		},
		{
			"bufferView":10,
			"componentType":5126,
			"count":34,
			"type":"VEC2"
		},
		{
			"bufferView":11,
			"componentType":5123,
			"count":96,
			"type":"SCALAR"
		},
		{
			"bufferView":12,
			"componentType":5126,
			"count":460,
			"max":[
				0.48588117957115173,
				0,
				0.09978173673152924
			],
			"min":[
				-0.4827316999435425,
				0,
				-0.12411874532699585
			],
			"type":"VEC3"
		},
		{
			"bufferView":13,
			"componentType":5126,
			"count":460,
			"type":"VEC3"
		},
		{
			"bufferView":14,
			"componentType":5126,
			"count":460,
			"type":"VEC2"
		},
		{
			"bufferView":15,
			"componentType":5123,
			"count":1338,
			"type":"SCALAR"
		},
		{
			"bufferView":16,
			"componentType":5126,
			"count":1984,
			"max":[
				1.3999996185302734,
				1.399999976158142,
				1.3999990224838257
			],
			"min":[
				-1.399998664855957,
				-1.399999976158142,
				-1.399999976158142
			],
			"type":"VEC3"
		},
		{
			"bufferView":17,
			"componentType":5126,
			"count":1984,
			"type":"VEC3"
		},
		{
			"bufferView":18,
			"componentType":5126,
			"count":1984,
			"type":"VEC2"
		},
		{
			"bufferView":19,
			"componentType":5123,
			"count":2880,
			"type":"SCALAR"
		}
	],
	"bufferViews":[
		{
			"buffer":0,
			"byteLength":3912,
			"byteOffset":0,
			"target":34962
		},
		{
			"buffer":0,
			"byteLength":3912,
			"byteOffset":3912,
			"target":34962
		},
		{
			"buffer":0,
			"byteLength":2608,
			"byteOffset":7824,
			"target":34962
		},
		{
			"buffer":0,
			"byteLength":1644,
			"byteOffset":10432,
			"target":34963
		},
		{
			"buffer":0,
			"byteLength":6840,
			"byteOffset":12076,
			"target":34962
		},
		{
			"buffer":0,
			"byteLength":6840,
			"byteOffset":18916,
			"target":34962
		},
		{
			"buffer":0,
			"byteLength":4560,
			"byteOffset":25756,
			"target":34962
		},
		{
			"buffer":0,
			"byteLength":3276,
			"byteOffset":30316,
			"target":34963
		},
		{
			"buffer":0,
			"byteLength":408,
			"byteOffset":33592,
			"target":34962
		},
		{
			"buffer":0,
			"byteLength":408,
			"byteOffset":34000,
			"target":34962
		},
		{
			"buffer":0,
			"byteLength":272,
			"byteOffset":34408,
			"target":34962
		},
		{
			"buffer":0,
			"byteLength":192,
			"byteOffset":34680,
			"target":34963
		},
		{
			"buffer":0,
			"byteLength":5520,
			"byteOffset":34872,
			"target":34962
		},
		{
			"buffer":0,
			"byteLength":5520,
			"byteOffset":40392,
			"target":34962
		},
		{
			"buffer":0,
			"byteLength":3680,
			"byteOffset":45912,
			"target":34962
		},
		{
			"buffer":0,
			"byteLength":2676,
			"byteOffset":49592,
			"target":34963
		},
		{
			"buffer":0,
			"byteLength":23808,
			"byteOffset":52268,
			"target":34962
		},
		{
			"buffer":0,
			"byteLength":23808,
			"byteOffset":76076,
			"target":34962
		},
		{
			"buffer":0,
			"byteLength":15872,
			"byteOffset":99884,
			"target":34962
		},
		{
			"buffer":0,
			"byteLength":5760,
			"byteOffset":115756,
			"target":34963
		}
	],
	"samplers":[
		{
			"magFilter":9729,
			"minFilter":9987
		}
	],
	"buffers":[
		{
			"byteLength":121516,
			"uri":"shopZoneColorPicker.bin"
		}
	]
}
