{
	"asset":{
		"generator":"Khronos glTF Blender I/O v4.5.49",
		"version":"2.0"
	},
	"scene":0,
	"scenes":[
		{
			"name":"Scene",
			"nodes":[
				0,
				1,
				2
			]
		}
	],
	"nodes":[
		{
			"mesh":0,
			"name":"btn.colorPickerPreset"
		},
		{
			"mesh":1,
			"name":"btn.colorPickerPreset._collider_sphere",
			"scale":[
				0.925484836101532,
				0.925484836101532,
				0.925484836101532
			],
			"translation":[
				-1.2524431943893433,
				0.24912643432617188,
				-0.046257875859737396
			]
		},
		{
			"mesh":2,
			"name":"tint",
			"translation":[
				-1.22598135471344,
				0.24386289715766907,
				0.05478127300739288
			]
		}
	],
	"materials":[
		{
			"doubleSided":true,
			"name":"MarblePure",
			"pbrMetallicRoughness":{
				"baseColorTexture":{
					"index":0
				},
				"metallicFactor":0,
				"roughnessFactor":0.6000000238418579
			}
		},
		{
			"doubleSided":true,
			"name":"Gold",
			"pbrMetallicRoughness":{
				"baseColorFactor":[
					0.8000858426094055,
					0.5408986806869507,
					0.2867134213447571,
					1
				],
				"roughnessFactor":0.16228070855140686
			}
		},
		{
			"doubleSided":true,
			"name":"Tint",
			"pbrMetallicRoughness":{
				"baseColorFactor":[
					0.800000011920929,
					0.800000011920929,
					0.800000011920929,
					1
				],
				"metallicFactor":0,
				"roughnessFactor":0.5
			}
		}
	],
	"meshes":[
		{
			"name":"Cylinder.004",
			"primitives":[
				{
					"attributes":{
						"POSITION":0,
						"NORMAL":1,
						"TEXCOORD_0":2
					},
					"indices":3,
					"material":0
				},
				{
					"attributes":{
						"POSITION":4,
						"NORMAL":5,
						"TEXCOORD_0":6
					},
					"indices":7,
					"material":1
				}
			]
		},
		{
			"name":"Sphere.002",
			"primitives":[
				{
					"attributes":{
						"POSITION":8,
						"NORMAL":9,
						"TEXCOORD_0":10
					},
					"indices":11
				}
			]
		},
		{
			"name":"Cylinder.018",
			"primitives":[
				{
					"attributes":{
						"POSITION":12,
						"NORMAL":13,
						"TEXCOORD_0":14
					},
					"indices":15,
					"material":2
				}
			]
		}
	],
	"textures":[
		{
			"sampler":0,
			"source":0
		}
	],
	"images":[
		{
			"mimeType":"image/png",
			"name":"MarbleFloor_2D_View",
			"uri":"tex/MarbleFloor_2D_View.png"
		}
	],
	"accessors":[
		{
			"bufferView":0,
			"componentType":5126,
			"count":128,
			"max":[
				-0.9982573986053467,
				0.47158706188201904,
				0.03228136897087097
			],
			"min":[
				-1.4537055492401123,
				0.016138747334480286,
				-0.09781307727098465
			],
			"type":"VEC3"
		},
		{
			"bufferView":1,
			"componentType":5126,
			"count":128,
			"type":"VEC3"
		},
		{
			"bufferView":2,
			"componentType":5126,
			"count":128,
			"type":"VEC2"
		},
		{
			"bufferView":3,
			"componentType":5123,
			"count":384,
			"type":"SCALAR"
		},
		{
			"bufferView":4,
			"componentType":5126,
			"count":128,
			"max":[
				-1.0208661556243896,
				0.4489781856536865,
				0.054781436920166016
			],
			"min":[
				-1.4310967922210693,
				0.03874760866165161,
				0.03228121995925903
			],
			"type":"VEC3"
		},
		{
			"bufferView":5,
			"componentType":5126,
			"count":128,
			"type":"VEC3"
		},
		{
			"bufferView":6,
			"componentType":5126,
			"count":128,
			"type":"VEC2"
		},
		{
			"bufferView":7,
			"componentType":5123,
			"count":384,
			"type":"SCALAR"
		},
		{
			"bufferView":8,
			"componentType":5126,
			"count":1984,
			"max":[
				0.29246702790260315,
				0.2924671173095703,
				0.292466938495636
			],
			"min":[
				-0.29246681928634644,
				-0.2924671173095703,
				-0.2924671173095703
			],
			"type":"VEC3"
		},
		{
			"bufferView":9,
			"componentType":5126,
			"count":1984,
			"type":"VEC3"
		},
		{
			"bufferView":10,
			"componentType":5126,
			"count":1984,
			"type":"VEC2"
		},
		{
			"bufferView":11,
			"componentType":5123,
			"count":2880,
			"type":"SCALAR"
		},
		{
			"bufferView":12,
			"componentType":5126,
			"count":32,
			"max":[
				0.1542452573776245,
				0.15424534678459167,
				1.6391277313232422e-07
			],
			"min":[
				-0.1542452573776245,
				-0.1542453169822693,
				-1.341104507446289e-07
			],
			"type":"VEC3"
		},
		{
			"bufferView":13,
			"componentType":5126,
			"count":32,
			"type":"VEC3"
		},
		{
			"bufferView":14,
			"componentType":5126,
			"count":32,
			"type":"VEC2"
		},
		{
			"bufferView":15,
			"componentType":5123,
			"count":90,
			"type":"SCALAR"
		}
	],
	"bufferViews":[
		{
			"buffer":0,
			"byteLength":1536,
			"byteOffset":0,
			"target":34962
		},
		{
			"buffer":0,
			"byteLength":1536,
			"byteOffset":1536,
			"target":34962
		},
		{
			"buffer":0,
			"byteLength":1024,
			"byteOffset":3072,
			"target":34962
		},
		{
			"buffer":0,
			"byteLength":768,
			"byteOffset":4096,
			"target":34963
		},
		{
			"buffer":0,
			"byteLength":1536,
			"byteOffset":4864,
			"target":34962
		},
		{
			"buffer":0,
			"byteLength":1536,
			"byteOffset":6400,
			"target":34962
		},
		{
			"buffer":0,
			"byteLength":1024,
			"byteOffset":7936,
			"target":34962
		},
		{
			"buffer":0,
			"byteLength":768,
			"byteOffset":8960,
			"target":34963
		},
		{
			"buffer":0,
			"byteLength":23808,
			"byteOffset":9728,
			"target":34962
		},
		{
			"buffer":0,
			"byteLength":23808,
			"byteOffset":33536,
			"target":34962
		},
		{
			"buffer":0,
			"byteLength":15872,
			"byteOffset":57344,
			"target":34962
		},
		{
			"buffer":0,
			"byteLength":5760,
			"byteOffset":73216,
			"target":34963
		},
		{
			"buffer":0,
			"byteLength":384,
			"byteOffset":78976,
			"target":34962
		},
		{
			"buffer":0,
			"byteLength":384,
			"byteOffset":79360,
			"target":34962
		},
		{
			"buffer":0,
			"byteLength":256,
			"byteOffset":79744,
			"target":34962
		},
		{
			"buffer":0,
			"byteLength":180,
			"byteOffset":80000,
			"target":34963
		}
	],
	"samplers":[
		{
			"magFilter":9729,
			"minFilter":9987
		}
	],
	"buffers":[
		{
			"byteLength":80180,
			"uri":"shopZoneColorPickerBtn.bin"
		}
	]
}
