{
	"asset":{
		"generator":"Khronos glTF Blender I/O v4.5.49",
		"version":"2.0"
	},
	"scene":0,
	"scenes":[
		{
			"name":"Scene",
			"nodes":[
				0
			]
		}
	],
	"nodes":[
		{
			"mesh":0,
			"name":"shopZone.sign"
		}
	],
	"materials":[
		{
			"doubleSided":true,
			"name":"MarblePure",
			"pbrMetallicRoughness":{
				"baseColorTexture":{
					"index":0
				},
				"metallicFactor":0,
				"roughnessFactor":0.6000000238418579
			}
		},
		{
			"doubleSided":true,
			"name":"Gold",
			"pbrMetallicRoughness":{
				"baseColorFactor":[
					0.8000858426094055,
					0.5408986806869507,
					0.2867134213447571,
					1
				],
				"roughnessFactor":0.16228070855140686
			}
		}
	],
	"meshes":[
		{
			"name":"Cylinder",
			"primitives":[
				{
					"attributes":{
						"POSITION":0,
						"NORMAL":1,
						"TEXCOORD_0":2
					},
					"indices":3,
					"material":0
				},
				{
					"attributes":{
						"POSITION":4,
						"NORMAL":5,
						"TEXCOORD_0":6
					},
					"indices":7,
					"material":1
				}
			]
		}
	],
	"textures":[
		{
			"sampler":0,
			"source":0
		}
	],
	"images":[
		{
			"mimeType":"image/png",
			"name":"MarbleFloor_2D_View",
			"uri":"tex/MarbleFloor_2D_View.png"
		}
	],
	"accessors":[
		{
			"bufferView":0,
			"componentType":5126,
			"count":166,
			"max":[
				1.5299997329711914,
				0.32999998331069946,
				0.09000001102685928
			],
			"min":[
				-1.5299997329711914,
				-0.32999998331069946,
				-0.07500001043081284
			],
			"type":"VEC3"
		},
		{
			"bufferView":1,
			"componentType":5126,
			"count":166,
			"type":"VEC3"
		},
		{
			"bufferView":2,
			"componentType":5126,
			"count":166,
			"type":"VEC2"
		},
		{
			"bufferView":3,
			"componentType":5123,
			"count":384,
			"type":"SCALAR"
		},
		{
			"bufferView":4,
			"componentType":5126,
			"count":452,
			"max":[
				1.5299997329711914,
				0.32999998331069946,
				0.12000000476837158
			],
			"min":[
				-1.5299997329711914,
				-0.32999998331069946,
				0.07499998062849045
			],
			"type":"VEC3"
		},
		{
			"bufferView":5,
			"componentType":5126,
			"count":452,
			"type":"VEC3"
		},
		{
			"bufferView":6,
			"componentType":5126,
			"count":452,
			"type":"VEC2"
		},
		{
			"bufferView":7,
			"componentType":5123,
			"count":1356,
			"type":"SCALAR"
		}
	],
	"bufferViews":[
		{
			"buffer":0,
			"byteLength":1992,
			"byteOffset":0,
			"target":34962
		},
		{
			"buffer":0,
			"byteLength":1992,
			"byteOffset":1992,
			"target":34962
		},
		{
			"buffer":0,
			"byteLength":1328,
			"byteOffset":3984,
			"target":34962
		},
		{
			"buffer":0,
			"byteLength":768,
			"byteOffset":5312,
			"target":34963
		},
		{
			"buffer":0,
			"byteLength":5424,
			"byteOffset":6080,
			"target":34962
		},
		{
			"buffer":0,
			"byteLength":5424,
			"byteOffset":11504,
			"target":34962
		},
		{
			"buffer":0,
			"byteLength":3616,
			"byteOffset":16928,
			"target":34962
		},
		{
			"buffer":0,
			"byteLength":2712,
			"byteOffset":20544,
			"target":34963
		}
	],
	"samplers":[
		{
			"magFilter":9729,
			"minFilter":9987
		}
	],
	"buffers":[
		{
			"byteLength":23256,
			"uri":"shopZoneSign.bin"
		}
	]
}
