{
	"asset":{
		"generator":"Khronos glTF Blender I/O v4.5.51",
		"version":"2.0"
	},
	"scene":0,
	"scenes":[
		{
			"name":"Scene",
			"nodes":[
				5
			]
		}
	],
	"nodes":[
		{
			"mesh":0,
			"name":"btn.Left.003",
			"rotation":[
				0.7071067690849304,
				3.206145322565135e-07,
				-3.206145322565135e-07,
				0.7071067690849304
			],
			"scale":[
				-1.1173797845840454,
				-1.1173797845840454,
				-1.1173797845840454
			],
			"translation":[
				-3.933900188712869e-06,
				0.1866614818572998,
				7.678793735976797e-06
			]
		},
		{
			"children":[
				0
			],
			"name":"Bone.001",
			"rotation":[
				0.7071067690849304,
				-2.837897170593351e-07,
				-2.837897170593351e-07,
				0.7071067690849304
			],
			"translation":[
				1.1999999284744263,
				0,
				0
			]
		},
		{
			"mesh":1,
			"name":"btn.Left.001",
			"rotation":[
				-0.7071067690849304,
				3.6878492437608656e-07,
				3.6878492437608656e-07,
				0.7071067690849304
			],
			"translation":[
				1.1920938902676426e-07,
				0.186661496758461,
				9.879857287842242e-08
			]
		},
		{
			"children":[
				2
			],
			"name":"Bone.002",
			"rotation":[
				0.7071067690849304,
				-3.6808341974392533e-07,
				-3.6808341974392533e-07,
				0.7071067690849304
			],
			"translation":[
				-1.1999999284744263,
				0,
				0
			]
		},
		{
			"children":[
				1,
				3
			],
			"name":"Bone"
		},
		{
			"children":[
				4
			],
			"name":"Armature"
		}
	],
	"animations":[
		{
			"channels":[
				{
					"sampler":0,
					"target":{
						"node":4,
						"path":"translation"
					}
				},
				{
					"sampler":1,
					"target":{
						"node":4,
						"path":"rotation"
					}
				},
				{
					"sampler":2,
					"target":{
						"node":4,
						"path":"scale"
					}
				},
				{
					"sampler":3,
					"target":{
						"node":1,
						"path":"translation"
					}
				},
				{
					"sampler":4,
					"target":{
						"node":1,
						"path":"rotation"
					}
				},
				{
					"sampler":5,
					"target":{
						"node":1,
						"path":"scale"
					}
				},
				{
					"sampler":6,
					"target":{
						"node":3,
						"path":"translation"
					}
				},
				{
					"sampler":7,
					"target":{
						"node":3,
						"path":"rotation"
					}
				},
				{
					"sampler":8,
					"target":{
						"node":3,
						"path":"scale"
					}
				}
			],
			"name":"highlight",
			"samplers":[
				{
					"input":7,
					"interpolation":"STEP",
					"output":8
				},
				{
					"input":7,
					"interpolation":"STEP",
					"output":9
				},
				{
					"input":7,
					"interpolation":"STEP",
					"output":10
				},
				{
					"input":7,
					"interpolation":"STEP",
					"output":11
				},
				{
					"input":12,
					"interpolation":"LINEAR",
					"output":13
				},
				{
					"input":12,
					"interpolation":"LINEAR",
					"output":14
				},
				{
					"input":7,
					"interpolation":"STEP",
					"output":15
				},
				{
					"input":12,
					"interpolation":"LINEAR",
					"output":16
				},
				{
					"input":12,
					"interpolation":"LINEAR",
					"output":14
				}
			]
		}
	],
	"materials":[
		{
			"alphaMode":"BLEND",
			"doubleSided":true,
			"emissiveFactor":[
				1,
				1,
				1
			],
			"emissiveTexture":{
				"index":0
			},
			"name":"ColorWheelFade",
			"pbrMetallicRoughness":{
				"baseColorTexture":{
					"index":1
				},
				"metallicFactor":0
			}
		}
	],
	"meshes":[
		{
			"name":"Cylinder.011",
			"primitives":[
				{
					"attributes":{
						"POSITION":0,
						"NORMAL":1,
						"TEXCOORD_0":2
					},
					"indices":3,
					"material":0
				}
			]
		},
		{
			"name":"Cylinder.014",
			"primitives":[
				{
					"attributes":{
						"POSITION":4,
						"NORMAL":5,
						"TEXCOORD_0":6
					},
					"indices":3,
					"material":0
				}
			]
		}
	],
	"textures":[
		{
			"sampler":0,
			"source":0
		},
		{
			"sampler":0,
			"source":1
		}
	],
	"images":[
		{
			"mimeType":"image/png",
			"name":"color-wheel",
			"uri":"tex/color-wheel.png"
		},
		{
			"mimeType":"image/png",
			"name":"color-wheel-text-gradient",
			"uri":"tex/color-wheel-text-gradient.png"
		}
	],
	"skins":[
		{
			"inverseBindMatrices":17,
			"joints":[
				4,
				1,
				3
			],
			"name":"Armature"
		}
	],
	"accessors":[
		{
			"bufferView":0,
			"componentType":5126,
			"count":384,
			"max":[
				0.420411616563797,
				0.42041152715682983,
				0.3338419497013092
			],
			"min":[
				-0.4204113483428955,
				-0.42041143774986267,
				-0.011556158773601055
			],
			"type":"VEC3"
		},
		{
			"bufferView":1,
			"componentType":5126,
			"count":384,
			"type":"VEC3"
		},
		{
			"bufferView":2,
			"componentType":5126,
			"count":384,
			"type":"VEC2"
		},
		{
			"bufferView":3,
			"componentType":5123,
			"count":1920,
			"type":"SCALAR"
		},
		{
			"bufferView":4,
			"componentType":5126,
			"count":384,
			"max":[
				0.4697592556476593,
				0.4697595238685608,
				0.3730282187461853
			],
			"min":[
				-0.4697593152523041,
				-0.469759076833725,
				-0.012912602163851261
			],
			"type":"VEC3"
		},
		{
			"bufferView":5,
			"componentType":5126,
			"count":384,
			"type":"VEC3"
		},
		{
			"bufferView":6,
			"componentType":5126,
			"count":384,
			"type":"VEC2"
		},
		{
			"bufferView":7,
			"componentType":5126,
			"count":2,
			"max":[
				2.5166666666666666
			],
			"min":[
				0
			],
			"type":"SCALAR"
		},
		{
			"bufferView":8,
			"componentType":5126,
			"count":2,
			"type":"VEC3"
		},
		{
			"bufferView":9,
			"componentType":5126,
			"count":2,
			"type":"VEC4"
		},
		{
			"bufferView":10,
			"componentType":5126,
			"count":2,
			"type":"VEC3"
		},
		{
			"bufferView":11,
			"componentType":5126,
			"count":2,
			"type":"VEC3"
		},
		{
			"bufferView":12,
			"componentType":5126,
			"count":152,
			"max":[
				2.5166666666666666
			],
			"min":[
				0
			],
			"type":"SCALAR"
		},
		{
			"bufferView":13,
			"componentType":5126,
			"count":152,
			"type":"VEC4"
		},
		{
			"bufferView":14,
			"componentType":5126,
			"count":152,
			"type":"VEC3"
		},
		{
			"bufferView":15,
			"componentType":5126,
			"count":2,
			"type":"VEC3"
		},
		{
			"bufferView":16,
			"componentType":5126,
			"count":152,
			"type":"VEC4"
		},
		{
			"bufferView":17,
			"componentType":5126,
			"count":3,
			"type":"MAT4"
		}
	],
	"bufferViews":[
		{
			"buffer":0,
			"byteLength":4608,
			"byteOffset":0,
			"target":34962
		},
		{
			"buffer":0,
			"byteLength":4608,
			"byteOffset":4608,
			"target":34962
		},
		{
			"buffer":0,
			"byteLength":3072,
			"byteOffset":9216,
			"target":34962
		},
		{
			"buffer":0,
			"byteLength":3840,
			"byteOffset":12288,
			"target":34963
		},
		{
			"buffer":0,
			"byteLength":4608,
			"byteOffset":16128,
			"target":34962
		},
		{
			"buffer":0,
			"byteLength":4608,
			"byteOffset":20736,
			"target":34962
		},
		{
			"buffer":0,
			"byteLength":3072,
			"byteOffset":25344,
			"target":34962
		},
		{
			"buffer":0,
			"byteLength":8,
			"byteOffset":28416
		},
		{
			"buffer":0,
			"byteLength":24,
			"byteOffset":28424
		},
		{
			"buffer":0,
			"byteLength":32,
			"byteOffset":28448
		},
		{
			"buffer":0,
			"byteLength":24,
			"byteOffset":28480
		},
		{
			"buffer":0,
			"byteLength":24,
			"byteOffset":28504
		},
		{
			"buffer":0,
			"byteLength":608,
			"byteOffset":28528
		},
		{
			"buffer":0,
			"byteLength":2432,
			"byteOffset":29136
		},
		{
			"buffer":0,
			"byteLength":1824,
			"byteOffset":31568
		},
		{
			"buffer":0,
			"byteLength":24,
			"byteOffset":33392
		},
		{
			"buffer":0,
			"byteLength":2432,
			"byteOffset":33416
		},
		{
			"buffer":0,
			"byteLength":192,
			"byteOffset":35848
		}
	],
	"samplers":[
		{
			"magFilter":9729,
			"minFilter":9987
		}
	],
	"buffers":[
		{
			"byteLength":36040,
			"uri":"shopZoneSignHighlight.bin"
		}
	]
}
