{
	"asset":{
		"generator":"Khronos glTF Blender I/O v4.2.80",
		"version":"2.0"
	},
	"scene":0,
	"scenes":[
		{
			"name":"Scene",
			"nodes":[
				0,
				1,
				2,
				3
			]
		}
	],
	"nodes":[
		{
			"mesh":0,
			"name":"secondGround.004",
			"scale":[
				2,
				1,
				2
			],
			"translation":[
				16,
				0,
				-16
			]
		},
		{
			"mesh":1,
			"name":"Cube.006",
			"translation":[
				16,
				0,
				-16
			]
		},
		{
			"mesh":2,
			"name":"Cube.008",
			"translation":[
				16,
				0,
				-16
			]
		},
		{
			"mesh":3,
			"name":"secondGround.005",
			"translation":[
				16,
				0,
				-16
			]
		}
	],
	"meshes":[
		{
			"name":"Plane.006",
			"primitives":[
				{
					"attributes":{
						"POSITION":0,
						"NORMAL":1,
						"TEXCOORD_0":2
					},
					"indices":3
				}
			]
		},
		{
			"name":"Cube.037",
			"primitives":[
				{
					"attributes":{
						"POSITION":4,
						"NORMAL":5,
						"TEXCOORD_0":6
					},
					"indices":7
				}
			]
		},
		{
			"name":"Cube.038",
			"primitives":[
				{
					"attributes":{
						"POSITION":8,
						"NORMAL":9,
						"TEXCOORD_0":10
					},
					"indices":11
				}
			]
		},
		{
			"name":"Plane.007",
			"primitives":[
				{
					"attributes":{
						"POSITION":12,
						"NORMAL":13,
						"TEXCOORD_0":14
					},
					"indices":15
				}
			]
		}
	],
	"accessors":[
		{
			"bufferView":0,
			"componentType":5126,
			"count":24,
			"max":[
				7.44384765625,
				10,
				7.454827308654785
			],
			"min":[
				-7.443854331970215,
				9.91158676147461,
				-7.45482063293457
			],
			"type":"VEC3"
		},
		{
			"bufferView":1,
			"componentType":5126,
			"count":24,
			"type":"VEC3"
		},
		{
			"bufferView":2,
			"componentType":5126,
			"count":24,
			"type":"VEC2"
		},
		{
			"bufferView":3,
			"componentType":5123,
			"count":36,
			"type":"SCALAR"
		},
		{
			"bufferView":4,
			"componentType":5126,
			"count":329,
			"max":[
				14.611294746398926,
				16.208911895751953,
				9.214937210083008
			],
			"min":[
				-14.611294746398926,
				9.998250961303711,
				-12.761978149414062
			],
			"type":"VEC3"
		},
		{
			"bufferView":5,
			"componentType":5126,
			"count":329,
			"type":"VEC3"
		},
		{
			"bufferView":6,
			"componentType":5126,
			"count":329,
			"type":"VEC2"
		},
		{
			"bufferView":7,
			"componentType":5123,
			"count":1020,
			"type":"SCALAR"
		},
		{
			"bufferView":8,
			"componentType":5126,
			"count":124,
			"max":[
				9.017512321472168,
				16.575611114501953,
				-6.465526580810547
			],
			"min":[
				-9.017512321472168,
				9.890954971313477,
				-12.761978149414062
			],
			"type":"VEC3"
		},
		{
			"bufferView":9,
			"componentType":5126,
			"count":124,
			"type":"VEC3"
		},
		{
			"bufferView":10,
			"componentType":5126,
			"count":124,
			"type":"VEC2"
		},
		{
			"bufferView":11,
			"componentType":5123,
			"count":240,
			"type":"SCALAR"
		},
		{
			"bufferView":12,
			"componentType":5126,
			"count":104,
			"max":[
				14.754914283752441,
				16.241426467895508,
				14.756680488586426
			],
			"min":[
				-14.754927635192871,
				9.991426467895508,
				-14.82429313659668
			],
			"type":"VEC3"
		},
		{
			"bufferView":13,
			"componentType":5126,
			"count":104,
			"type":"VEC3"
		},
		{
			"bufferView":14,
			"componentType":5126,
			"count":104,
			"type":"VEC2"
		},
		{
			"bufferView":15,
			"componentType":5123,
			"count":204,
			"type":"SCALAR"
		}
	],
	"bufferViews":[
		{
			"buffer":0,
			"byteLength":288,
			"byteOffset":0,
			"target":34962
		},
		{
			"buffer":0,
			"byteLength":288,
			"byteOffset":288,
			"target":34962
		},
		{
			"buffer":0,
			"byteLength":192,
			"byteOffset":576,
			"target":34962
		},
		{
			"buffer":0,
			"byteLength":72,
			"byteOffset":768,
			"target":34963
		},
		{
			"buffer":0,
			"byteLength":3948,
			"byteOffset":840,
			"target":34962
		},
		{
			"buffer":0,
			"byteLength":3948,
			"byteOffset":4788,
			"target":34962
		},
		{
			"buffer":0,
			"byteLength":2632,
			"byteOffset":8736,
			"target":34962
		},
		{
			"buffer":0,
			"byteLength":2040,
			"byteOffset":11368,
			"target":34963
		},
		{
			"buffer":0,
			"byteLength":1488,
			"byteOffset":13408,
			"target":34962
		},
		{
			"buffer":0,
			"byteLength":1488,
			"byteOffset":14896,
			"target":34962
		},
		{
			"buffer":0,
			"byteLength":992,
			"byteOffset":16384,
			"target":34962
		},
		{
			"buffer":0,
			"byteLength":480,
			"byteOffset":17376,
			"target":34963
		},
		{
			"buffer":0,
			"byteLength":1248,
			"byteOffset":17856,
			"target":34962
		},
		{
			"buffer":0,
			"byteLength":1248,
			"byteOffset":19104,
			"target":34962
		},
		{
			"buffer":0,
			"byteLength":832,
			"byteOffset":20352,
			"target":34962
		},
		{
			"buffer":0,
			"byteLength":408,
			"byteOffset":21184,
			"target":34963
		}
	],
	"buffers":[
		{
			"byteLength":21592,
			"uri":"walkwaycollidersbox.bin"
		}
	]
}
