{
	"asset":{
		"generator":"Khronos glTF Blender I/O v4.5.51",
		"version":"2.0"
	},
	"scene":0,
	"scenes":[
		{
			"name":"Scene",
			"nodes":[
				6
			]
		}
	],
	"nodes":[
		{
			"mesh":0,
			"name":"winner.arrow",
			"scale":[
				0.12011285126209259,
				0.12011285126209259,
				0.02402256801724434
			],
			"translation":[
				0,
				0.23153173923492432,
				0
			]
		},
		{
			"children":[
				0
			],
			"name":"Bone.001",
			"translation":[
				0,
				1.9184683561325073,
				0
			]
		},
		{
			"mesh":1,
			"name":"Text.007",
			"rotation":[
				1.1520232590100932e-07,
				-0.7071067690849304,
				0.7071067690849304,
				1.1520231879558196e-07
			],
			"scale":[
				0.3480556607246399,
				0.3480556607246399,
				0.3480556607246399
			],
			"translation":[
				0,
				-0.0024225711822509766,
				0
			]
		},
		{
			"children":[
				2
			],
			"name":"Bone.002",
			"translation":[
				0,
				2.348735809326172,
				0
			]
		},
		{
			"name":"Bone.003",
			"rotation":[
				0.7071067690849304,
				-2.837897170593351e-07,
				-2.837897170593351e-07,
				0.7071067690849304
			],
			"translation":[
				0,
				2.1367247104644775,
				-0.09441907703876495
			]
		},
		{
			"children":[
				1,
				3,
				4
			],
			"name":"Bone"
		},
		{
			"children":[
				5
			],
			"name":"Armature.001"
		}
	],
	"animations":[
		{
			"channels":[
				{
					"sampler":0,
					"target":{
						"node":5,
						"path":"translation"
					}
				},
				{
					"sampler":1,
					"target":{
						"node":5,
						"path":"rotation"
					}
				},
				{
					"sampler":2,
					"target":{
						"node":5,
						"path":"scale"
					}
				},
				{
					"sampler":3,
					"target":{
						"node":1,
						"path":"translation"
					}
				},
				{
					"sampler":4,
					"target":{
						"node":1,
						"path":"rotation"
					}
				},
				{
					"sampler":5,
					"target":{
						"node":1,
						"path":"scale"
					}
				},
				{
					"sampler":6,
					"target":{
						"node":3,
						"path":"translation"
					}
				},
				{
					"sampler":7,
					"target":{
						"node":3,
						"path":"rotation"
					}
				},
				{
					"sampler":8,
					"target":{
						"node":3,
						"path":"scale"
					}
				},
				{
					"sampler":9,
					"target":{
						"node":4,
						"path":"translation"
					}
				},
				{
					"sampler":10,
					"target":{
						"node":4,
						"path":"rotation"
					}
				},
				{
					"sampler":11,
					"target":{
						"node":4,
						"path":"scale"
					}
				}
			],
			"name":"Idle",
			"samplers":[
				{
					"input":16,
					"interpolation":"STEP",
					"output":17
				},
				{
					"input":16,
					"interpolation":"STEP",
					"output":18
				},
				{
					"input":16,
					"interpolation":"STEP",
					"output":19
				},
				{
					"input":20,
					"interpolation":"LINEAR",
					"output":21
				},
				{
					"input":20,
					"interpolation":"LINEAR",
					"output":22
				},
				{
					"input":20,
					"interpolation":"LINEAR",
					"output":23
				},
				{
					"input":20,
					"interpolation":"LINEAR",
					"output":24
				},
				{
					"input":16,
					"interpolation":"STEP",
					"output":18
				},
				{
					"input":20,
					"interpolation":"LINEAR",
					"output":25
				},
				{
					"input":20,
					"interpolation":"LINEAR",
					"output":26
				},
				{
					"input":20,
					"interpolation":"LINEAR",
					"output":27
				},
				{
					"input":16,
					"interpolation":"STEP",
					"output":19
				}
			]
		},
		{
			"channels":[
				{
					"sampler":0,
					"target":{
						"node":5,
						"path":"translation"
					}
				},
				{
					"sampler":1,
					"target":{
						"node":5,
						"path":"rotation"
					}
				},
				{
					"sampler":2,
					"target":{
						"node":5,
						"path":"scale"
					}
				},
				{
					"sampler":3,
					"target":{
						"node":1,
						"path":"translation"
					}
				},
				{
					"sampler":4,
					"target":{
						"node":1,
						"path":"rotation"
					}
				},
				{
					"sampler":5,
					"target":{
						"node":1,
						"path":"scale"
					}
				},
				{
					"sampler":6,
					"target":{
						"node":3,
						"path":"translation"
					}
				},
				{
					"sampler":7,
					"target":{
						"node":3,
						"path":"rotation"
					}
				},
				{
					"sampler":8,
					"target":{
						"node":3,
						"path":"scale"
					}
				},
				{
					"sampler":9,
					"target":{
						"node":4,
						"path":"translation"
					}
				},
				{
					"sampler":10,
					"target":{
						"node":4,
						"path":"rotation"
					}
				},
				{
					"sampler":11,
					"target":{
						"node":4,
						"path":"scale"
					}
				}
			],
			"name":"Idle.001",
			"samplers":[
				{
					"input":16,
					"interpolation":"STEP",
					"output":17
				},
				{
					"input":16,
					"interpolation":"STEP",
					"output":18
				},
				{
					"input":16,
					"interpolation":"STEP",
					"output":19
				},
				{
					"input":20,
					"interpolation":"LINEAR",
					"output":21
				},
				{
					"input":20,
					"interpolation":"LINEAR",
					"output":22
				},
				{
					"input":20,
					"interpolation":"LINEAR",
					"output":23
				},
				{
					"input":20,
					"interpolation":"LINEAR",
					"output":24
				},
				{
					"input":16,
					"interpolation":"STEP",
					"output":18
				},
				{
					"input":20,
					"interpolation":"LINEAR",
					"output":25
				},
				{
					"input":20,
					"interpolation":"LINEAR",
					"output":26
				},
				{
					"input":20,
					"interpolation":"LINEAR",
					"output":27
				},
				{
					"input":16,
					"interpolation":"STEP",
					"output":19
				}
			]
		},
		{
			"channels":[
				{
					"sampler":0,
					"target":{
						"node":0,
						"path":"translation"
					}
				},
				{
					"sampler":1,
					"target":{
						"node":0,
						"path":"rotation"
					}
				},
				{
					"sampler":2,
					"target":{
						"node":0,
						"path":"scale"
					}
				}
			],
			"name":"winner.arrow",
			"samplers":[
				{
					"input":16,
					"interpolation":"STEP",
					"output":28
				},
				{
					"input":16,
					"interpolation":"STEP",
					"output":29
				},
				{
					"input":16,
					"interpolation":"STEP",
					"output":30
				}
			]
		},
		{
			"channels":[
				{
					"sampler":0,
					"target":{
						"node":2,
						"path":"translation"
					}
				},
				{
					"sampler":1,
					"target":{
						"node":2,
						"path":"rotation"
					}
				},
				{
					"sampler":2,
					"target":{
						"node":2,
						"path":"scale"
					}
				}
			],
			"name":"Text.007",
			"samplers":[
				{
					"input":16,
					"interpolation":"STEP",
					"output":31
				},
				{
					"input":16,
					"interpolation":"STEP",
					"output":32
				},
				{
					"input":16,
					"interpolation":"STEP",
					"output":33
				}
			]
		}
	],
	"materials":[
		{
			"doubleSided":true,
			"emissiveFactor":[
				0.400534987449646,
				0.3740459978580475,
				0.30081748962402344
			],
			"name":"Neon-0.25",
			"pbrMetallicRoughness":{
				"baseColorFactor":[
					0.801069974899292,
					0.748091995716095,
					0.6016349792480469,
					1
				],
				"metallicFactor":0,
				"roughnessFactor":0.5
			}
		},
		{
			"doubleSided":true,
			"name":"MarblePure",
			"pbrMetallicRoughness":{
				"baseColorTexture":{
					"index":0
				},
				"metallicFactor":0,
				"roughnessFactor":0.6000000238418579
			}
		}
	],
	"meshes":[
		{
			"name":"Cube.001",
			"primitives":[
				{
					"attributes":{
						"POSITION":0,
						"NORMAL":1,
						"TEXCOORD_0":2
					},
					"indices":3,
					"material":0
				},
				{
					"attributes":{
						"POSITION":4,
						"NORMAL":5,
						"TEXCOORD_0":6
					},
					"indices":7,
					"material":1
				}
			]
		},
		{
			"name":"Text.005",
			"primitives":[
				{
					"attributes":{
						"POSITION":8,
						"NORMAL":9,
						"TEXCOORD_0":10
					},
					"indices":11,
					"material":0
				},
				{
					"attributes":{
						"POSITION":12,
						"NORMAL":13,
						"TEXCOORD_0":14
					},
					"indices":15,
					"material":1
				}
			]
		}
	],
	"textures":[
		{
			"sampler":0,
			"source":0
		}
	],
	"images":[
		{
			"mimeType":"image/png",
			"name":"MarbleFloor_2D_View",
			"uri":"tex/MarbleFloor_2D_View.png"
		}
	],
	"skins":[
		{
			"inverseBindMatrices":34,
			"joints":[
				5,
				1,
				3,
				4
			],
			"name":"Armature.001"
		}
	],
	"accessors":[
		{
			"bufferView":0,
			"componentType":5126,
			"count":40,
			"max":[
				1,
				1,
				0.8415982723236084
			],
			"min":[
				-1,
				-1.3547918796539307,
				-0.8415982723236084
			],
			"type":"VEC3"
		},
		{
			"bufferView":1,
			"componentType":5126,
			"count":40,
			"type":"VEC3"
		},
		{
			"bufferView":2,
			"componentType":5126,
			"count":40,
			"type":"VEC2"
		},
		{
			"bufferView":3,
			"componentType":5123,
			"count":108,
			"type":"SCALAR"
		},
		{
			"bufferView":4,
			"componentType":5126,
			"count":84,
			"max":[
				1.196738362312317,
				1.1318163871765137,
				0.8415982723236084
			],
			"min":[
				-1.196738362312317,
				-1.50765860080719,
				-0.8415982723236084
			],
			"type":"VEC3"
		},
		{
			"bufferView":5,
			"componentType":5126,
			"count":84,
			"type":"VEC3"
		},
		{
			"bufferView":6,
			"componentType":5126,
			"count":84,
			"type":"VEC2"
		},
		{
			"bufferView":7,
			"componentType":5123,
			"count":240,
			"type":"SCALAR"
		},
		{
			"bufferView":8,
			"componentType":5126,
			"count":245,
			"max":[
				1.0926384925842285,
				0.050146427005529404,
				0.022332506254315376
			],
			"min":[
				-1.1624679565429688,
				0.04981575161218643,
				-0.6160314083099365
			],
			"type":"VEC3"
		},
		{
			"bufferView":9,
			"componentType":5126,
			"count":245,
			"type":"VEC3"
		},
		{
			"bufferView":10,
			"componentType":5126,
			"count":245,
			"type":"VEC2"
		},
		{
			"bufferView":11,
			"componentType":5123,
			"count":687,
			"type":"SCALAR"
		},
		{
			"bufferView":12,
			"componentType":5126,
			"count":602,
			"max":[
				1.1725480556488037,
				0.050146427005529404,
				0.10299519449472427
			],
			"min":[
				-1.242698073387146,
				-0.05046263709664345,
				-0.696865975856781
			],
			"type":"VEC3"
		},
		{
			"bufferView":13,
			"componentType":5126,
			"count":602,
			"type":"VEC3"
		},
		{
			"bufferView":14,
			"componentType":5126,
			"count":602,
			"type":"VEC2"
		},
		{
			"bufferView":15,
			"componentType":5123,
			"count":1770,
			"type":"SCALAR"
		},
		{
			"bufferView":16,
			"componentType":5126,
			"count":2,
			"max":[
				5
			],
			"min":[
				0.016666666666666666
			],
			"type":"SCALAR"
		},
		{
			"bufferView":17,
			"componentType":5126,
			"count":2,
			"type":"VEC3"
		},
		{
			"bufferView":18,
			"componentType":5126,
			"count":2,
			"type":"VEC4"
		},
		{
			"bufferView":19,
			"componentType":5126,
			"count":2,
			"type":"VEC3"
		},
		{
			"bufferView":20,
			"componentType":5126,
			"count":300,
			"max":[
				5
			],
			"min":[
				0.016666666666666666
			],
			"type":"SCALAR"
		},
		{
			"bufferView":21,
			"componentType":5126,
			"count":300,
			"type":"VEC3"
		},
		{
			"bufferView":22,
			"componentType":5126,
			"count":300,
			"type":"VEC4"
		},
		{
			"bufferView":23,
			"componentType":5126,
			"count":300,
			"type":"VEC3"
		},
		{
			"bufferView":24,
			"componentType":5126,
			"count":300,
			"type":"VEC3"
		},
		{
			"bufferView":25,
			"componentType":5126,
			"count":300,
			"type":"VEC3"
		},
		{
			"bufferView":26,
			"componentType":5126,
			"count":300,
			"type":"VEC3"
		},
		{
			"bufferView":27,
			"componentType":5126,
			"count":300,
			"type":"VEC4"
		},
		{
			"bufferView":28,
			"componentType":5126,
			"count":2,
			"type":"VEC3"
		},
		{
			"bufferView":29,
			"componentType":5126,
			"count":2,
			"type":"VEC4"
		},
		{
			"bufferView":30,
			"componentType":5126,
			"count":2,
			"type":"VEC3"
		},
		{
			"bufferView":31,
			"componentType":5126,
			"count":2,
			"type":"VEC3"
		},
		{
			"bufferView":32,
			"componentType":5126,
			"count":2,
			"type":"VEC4"
		},
		{
			"bufferView":33,
			"componentType":5126,
			"count":2,
			"type":"VEC3"
		},
		{
			"bufferView":34,
			"componentType":5126,
			"count":4,
			"type":"MAT4"
		}
	],
	"bufferViews":[
		{
			"buffer":0,
			"byteLength":480,
			"byteOffset":0,
			"target":34962
		},
		{
			"buffer":0,
			"byteLength":480,
			"byteOffset":480,
			"target":34962
		},
		{
			"buffer":0,
			"byteLength":320,
			"byteOffset":960,
			"target":34962
		},
		{
			"buffer":0,
			"byteLength":216,
			"byteOffset":1280,
			"target":34963
		},
		{
			"buffer":0,
			"byteLength":1008,
			"byteOffset":1496,
			"target":34962
		},
		{
			"buffer":0,
			"byteLength":1008,
			"byteOffset":2504,
			"target":34962
		},
		{
			"buffer":0,
			"byteLength":672,
			"byteOffset":3512,
			"target":34962
		},
		{
			"buffer":0,
			"byteLength":480,
			"byteOffset":4184,
			"target":34963
		},
		{
			"buffer":0,
			"byteLength":2940,
			"byteOffset":4664,
			"target":34962
		},
		{
			"buffer":0,
			"byteLength":2940,
			"byteOffset":7604,
			"target":34962
		},
		{
			"buffer":0,
			"byteLength":1960,
			"byteOffset":10544,
			"target":34962
		},
		{
			"buffer":0,
			"byteLength":1374,
			"byteOffset":12504,
			"target":34963
		},
		{
			"buffer":0,
			"byteLength":7224,
			"byteOffset":13880,
			"target":34962
		},
		{
			"buffer":0,
			"byteLength":7224,
			"byteOffset":21104,
			"target":34962
		},
		{
			"buffer":0,
			"byteLength":4816,
			"byteOffset":28328,
			"target":34962
		},
		{
			"buffer":0,
			"byteLength":3540,
			"byteOffset":33144,
			"target":34963
		},
		{
			"buffer":0,
			"byteLength":8,
			"byteOffset":36684
		},
		{
			"buffer":0,
			"byteLength":24,
			"byteOffset":36692
		},
		{
			"buffer":0,
			"byteLength":32,
			"byteOffset":36716
		},
		{
			"buffer":0,
			"byteLength":24,
			"byteOffset":36748
		},
		{
			"buffer":0,
			"byteLength":1200,
			"byteOffset":36772
		},
		{
			"buffer":0,
			"byteLength":3600,
			"byteOffset":37972
		},
		{
			"buffer":0,
			"byteLength":4800,
			"byteOffset":41572
		},
		{
			"buffer":0,
			"byteLength":3600,
			"byteOffset":46372
		},
		{
			"buffer":0,
			"byteLength":3600,
			"byteOffset":49972
		},
		{
			"buffer":0,
			"byteLength":3600,
			"byteOffset":53572
		},
		{
			"buffer":0,
			"byteLength":3600,
			"byteOffset":57172
		},
		{
			"buffer":0,
			"byteLength":4800,
			"byteOffset":60772
		},
		{
			"buffer":0,
			"byteLength":24,
			"byteOffset":65572
		},
		{
			"buffer":0,
			"byteLength":32,
			"byteOffset":65596
		},
		{
			"buffer":0,
			"byteLength":24,
			"byteOffset":65628
		},
		{
			"buffer":0,
			"byteLength":24,
			"byteOffset":65652
		},
		{
			"buffer":0,
			"byteLength":32,
			"byteOffset":65676
		},
		{
			"buffer":0,
			"byteLength":24,
			"byteOffset":65708
		},
		{
			"buffer":0,
			"byteLength":256,
			"byteOffset":65732
		}
	],
	"samplers":[
		{
			"magFilter":9729,
			"minFilter":9987
		}
	],
	"buffers":[
		{
			"byteLength":65988,
			"uri":"winner.bin"
		}
	]
}
